<svg width="204" height="204" viewBox="0 0 204 204" fill="none" xmlns="http://www.w3.org/2000/svg">
<path opacity="0.1" d="M104.191 196.863L104.671 203.345L112.752 202.747L110.415 194.988L104.191 196.863ZM52.2643 19.9112L56.7736 15.2297L46.0228 21.7259L52.2643 19.9112ZM185.411 148.079L180.907 152.766L185.884 157.548L190.359 152.294L185.411 148.079ZM195.619 88.2081L202.042 87.2122L200.569 77.7108L192.301 82.6187L195.619 88.2081ZM150.793 114.817L146.283 119.499L146.289 119.504L150.793 114.817ZM46.4946 178.68L43.0465 173.17L35.9261 177.625L42.026 183.4L46.4946 178.68ZM190.359 152.294C197.75 143.616 207.15 120.156 202.042 87.2122L189.195 89.204C193.852 119.235 184.907 138.646 180.462 143.864L190.359 152.294ZM47.7549 24.5926L146.283 119.499L155.302 110.136L56.7736 15.2297L47.7549 24.5926ZM146.289 119.504L180.907 152.766L189.914 143.392L155.296 110.13L146.289 119.504ZM192.301 82.6187L147.475 109.228L154.111 120.407L198.937 93.7975L192.301 82.6187ZM103.712 190.38C98.4492 190.77 88.9275 190.288 78.7262 187.779C68.4972 185.263 58.2692 180.875 50.9632 173.959L42.026 183.4C51.5851 192.449 64.2139 197.597 75.6212 200.403C87.0562 203.215 97.9504 203.842 104.671 203.345L103.712 190.38ZM110.415 194.988L96.6567 149.309L84.2091 153.058L97.9676 198.737L110.415 194.988ZM96.6744 149.369L58.5058 18.0964L46.0228 21.7259L84.1914 152.998L96.6744 149.369ZM49.9427 184.19L93.881 156.693L86.9847 145.673L43.0465 173.17L49.9427 184.19ZM28.7428 31.1406C15.2529 46.4795 4.07328 66.2765 1.20955 89.3477C-1.67195 112.562 3.95268 138.437 22.9761 165.559L33.6192 158.095C16.2494 133.329 11.6662 110.642 14.1105 90.9491C16.5727 71.1129 26.2528 53.657 38.5047 39.7257L28.7428 31.1406ZM78.9863 16.053C116.179 7.70132 160.723 18.4695 184.441 67.5323L196.145 61.8744C169.267 6.27419 117.945 -6.01897 76.1381 3.36889L78.9863 16.053Z" fill="white"/>
</svg>
