<svg xmlns="http://www.w3.org/2000/svg" viewBox="0 0 637.33 529.95"><defs><style>.cls-1{fill:#fff;}</style></defs><title>Asset 1</title><g id="Layer_2" data-name="Layer 2"><g id="Layer_1-2" data-name="Layer 1"><path class="cls-1" d="M412.65,157.23a13.33,13.33,0,0,0-4-4c-.46.17-.9.19-1,.4-.78,1.31,0,2.23,1,2.88,1.17.77,2.32,1.92,4,1.15A.45.45,0,0,0,412.65,157.23Z"/><path class="cls-1" d="M412.83,161.2c-1.1,0-1.57.89-1,1.53a23.26,23.26,0,0,1,3.76,6.17c.15.33.8.56,1.25.62s.87-.39,1-.91C418.29,166.62,414.91,161.55,412.83,161.2Z"/><path class="cls-1" d="M395.14,176.16c-2.75-.16-2.42-1.2-1.19-3,.87-1.31,2.27-2.54,1.93-4.36.06-2.73-1.41-4.54-2.74-3.45-1.77,1.44-4.46,3.06-4,5.6a6,6,0,0,1-1.79,6.2c-.72.7-1.41,1.56-.52,2.56a2.42,2.42,0,0,0,2.76.56c1.83-.68,3.45-1.94,5.59-1.73.78.07,1.94.1,2-.94C397.38,176.14,396.07,176.21,395.14,176.16Z"/><path class="cls-1" d="M420.72,176.45c-.17-1,.1-2.69-1.71-2.28a2.14,2.14,0,0,0-1.45,2.42,13.42,13.42,0,0,0,2.38,6.27c.55.86.67,2.63,2.28,1.7,1.11-.64,1-2,.5-3.11A19.88,19.88,0,0,1,420.72,176.45Z"/><path class="cls-1" d="M347.91,179.44a2.19,2.19,0,0,0,2.76-1.44c-.06-1.8-1.56-1.87-2.76-2.16s-2.59-.41-2.65,1.18S346.57,179.19,347.91,179.44Z"/><path class="cls-1" d="M170,302.33c-.24.18-.61.31-.7.55-.56,1.44,2.37,5.76,3.82,5.65a1.16,1.16,0,0,0,.82-.43C174.5,307.24,171.12,302.34,170,302.33Z"/><path class="cls-1" d="M234.47,244.84c-1.24.06-1.43,1.17-1.37,2.16.1,1.56.65,3,2.49,2.94,1.22,0,1.46-1.07,1.34-2.28C236.58,246.43,236.47,244.73,234.47,244.84Z"/><path class="cls-1" d="M360.49,118.83a.9.9,0,0,0,.83-.27c.29-.51-.07-1-.43-1.28-2.6-2.29-5.19-4.58-7.82-6.84a5.25,5.25,0,0,0-1.29-.61c-1.33.33-1,1.27-.64,1.93C353.28,115.37,357.21,116.69,360.49,118.83Z"/><path class="cls-1" d="M235.07,241.68c1.46-.33,1.44-1.66,1.48-2.82s0-2.33,0-3.5h-.08c0-1.33.05-2.67,0-4-.06-1.16-.16-2.67-1.77-2.39-1.39.24-.63,1.57-.58,2.48.11,2.55,1.26,5.43-2.34,6.75-1,.37-1,1.32-.25,2A3.86,3.86,0,0,0,235.07,241.68Z"/><path class="cls-1" d="M348.41,97.06c.46.14.89-.3,1-1a4.4,4.4,0,0,0-3.57-2.88c-.71-.14-1.52.37-1.27,1.08C345.2,96,346.82,96.59,348.41,97.06Z"/><path class="cls-1" d="M599.65,203.52c-1.54-14.78-8-27.24-17.59-38.38-11.17-13-25.2-23.16-36.08-36.7a101.3,101.3,0,0,0,6.1,24c5.37,13.81,14.14,25.6,22.53,37.6,10.41,14.87,21.17,29.53,25.65,47.59.15.61.21,1.45,1,1.46s.93-.82,1.06-1.46c1-4.89,1.57-9.92,3.09-14.65,3.19-10,7.06-19.73,10.31-29.69,3.36-10.27,6.41-20.62,7-31.56a98.14,98.14,0,0,0-10.1-48.85c-3.91-8-8.4-15.78-14.53-22.7-.6,1.59.35,2.49.78,3.48,5.59,13,5.47,26.68,3.68,40.3-1.33,10.07-2.85,20.1-3.33,30.25-.6,12.68,1,25.27,1.65,37.91,0,1,.53,2.14-.73,3.23A14.24,14.24,0,0,1,599.65,203.52Z"/><path class="cls-1" d="M74.11,367.23c-.57.3-1.19-.45-1.59-1-1.78-2.39-3.59-4.77-5.3-7.21-4.29-6.13-8.09-12.6-12.81-18.44-8.08-10-17.6-18.6-26.34-28-10.84-11.6-21.37-23.36-25.5-39.29-.17-.64-.33-1.39-1.18-1.26s-.95.85-1,1.52c-.1,1.16-.14,2.32-.18,3.49C0,284.65,1.24,292,2.59,299.4a81.27,81.27,0,0,0,7.92,22.52c9.61,18.71,24.66,32.47,41.25,44.7,13.8,10.17,28.71,18.69,42.95,28.23,1.17.78,2.56,2.74,3.76,1.65s-.19-3.1-1-4.43c-6.5-11-8.77-23.25-10.74-35.59C84.29,341,84.05,325.34,82,309.81c-1.57-11.89-3-23.73-6.08-35.35a85.51,85.51,0,0,0-4.62-12.61,3.91,3.91,0,0,0-1,3.34c.21,11.44-2.34,22.5-4.82,33.52-3.07,13.65-4.22,27.32-1.4,41.09a77.19,77.19,0,0,0,9.79,25.49C74.19,365.83,75.36,366.59,74.11,367.23Z"/><path class="cls-1" d="M336.13,471.77c7.37-.44,14.58-.15,21.53,3a112.92,112.92,0,0,1,20.87,12.65c12,8.83,24.29,16.8,38.48,21.78s28,7.52,41.81-.63c1.29-.75,2.76-1.17,4.11-1.82q10.13-4.87,20.23-9.8c.74-.36,1.83-.77,1.7-1.6-.22-1.36-1.58-.88-2.45-.83-3.15.2-6.29.63-9.45.8-17.5,1-33.4-4.66-49-11.8q-14.75-6.76-30-12.32a157.42,157.42,0,0,0-25.08-6.57,89.64,89.64,0,0,0-34.7.1c-9,1.84-17.73,3.75-27,.86-11.63-3.63-23.82-3.31-35.66-1.57-20.58,3-39.61,11.21-58.47,19.64-8.36,3.73-16.72,7.62-25.66,9.58a83.1,83.1,0,0,1-30.28,1.44,25.28,25.28,0,0,0-4-.18c-.46,0-1.18.17-1.33.48-.34.72.3,1.21.85,1.57s1.44.85,2.18,1.23a352.14,352.14,0,0,0,33.71,15.14,19.43,19.43,0,0,0,8.8,1.37c15.2-1.31,29.14-6.48,42.34-13.87,9.32-5.21,17.51-12.08,26.38-17.95s17.89-11,29-10.67c2,0,4,0,6,0,.78,0,1.85-.14,2.12.86s-.68,1.45-1.38,1.79c-2.69,1.31-5.48,2.43-8.13,3.79a233.58,233.58,0,0,0-38.41,25c-6.25,5-12.46,10-18.26,15.5-3.71,3.53-3.39,5.9,1,8.53,2.62,1.58,5.62,2,8.57,2.53a6.45,6.45,0,0,0,6.25-2.14c9.35-9.48,18.89-18.76,29-27.43a169.4,169.4,0,0,1,32.51-22.13,9.16,9.16,0,0,1,9,.07,165.94,165.94,0,0,1,32.87,22.46q14.54,12.62,28,26.28c2.57,2.62,5.17,3.36,8.51,2.43,1.44-.39,2.94-.62,4.36-1.08,6.93-2.29,7.75-5.47,2.48-10.3-16.24-14.89-33.68-28.12-53.27-38.4-3.54-1.86-7.33-3.17-10.72-5.3-.66-.41-1.77-.67-1.55-1.66S335.35,471.82,336.13,471.77Z"/><path class="cls-1" d="M330.12,233.89c.18,0,.3-.49.5-.84a13.27,13.27,0,0,0-2.57-4.51c-.34-.36-1-.14-1.21.35a2.43,2.43,0,0,0,.5,2.7C328.1,232.54,328.41,234.11,330.12,233.89Z"/><path class="cls-1" d="M476.19,80c-1.41-.72-2,.73-2.75,1.47-8.51,8.22-21.37,8.05-29.36-.41-.76-.81-1.31-2.32-2.69-1.46-1.18.74-.59,2.11-.35,3.23,2.37,10.74,16.37,18,25,12.6.84-.54,1.81-.86,2.67-1.35a3.24,3.24,0,0,1,4.77,1c.89,1.2,1.91,2.31,2.8,3.51a203.52,203.52,0,0,1,22.68,37.52c5.78,12.74,10.71,25.81,13.63,39.54,1.83,8.63,3.8,17.24,4.17,26.12.07,1.64.33,3.62,2.73,3.31,2-.26,1.89-2,1.85-3.52,0-.67-.16-1.33-.21-2-1-13.17-3.92-25.93-7.73-38.58A207.28,207.28,0,0,0,481,97.23c-3.29-4.44-8.42-8.36-4.27-14.3C476.73,81.47,477,80.4,476.19,80Z"/><path class="cls-1" d="M38.23,95.52a9.77,9.77,0,0,0,1.44-4.83A16.88,16.88,0,0,0,35,95.79a136,136,0,0,0-10.58,18.06,99.83,99.83,0,0,0-9.86,37.88c-1.08,16.3,3.55,31.63,8.94,46.7,4.76,13.3,10,26.44,12.31,41.33a22.09,22.09,0,0,0,2.78-6.33c1.71-6.67,4.81-12.73,8.12-18.71,7.67-13.88,17.49-26.32,26.35-39.4A114.93,114.93,0,0,0,91.68,130c.11-.65.42-1.54-.22-1.83-1.11-.49-1.3.78-1.68,1.36A56.77,56.77,0,0,1,81,139.74c-8.48,8-17.1,15.88-24.83,24.62-8.84,10-15.82,21-17.22,34.73a29.54,29.54,0,0,1-.78,3.92c-.22.87,0,2.36-1.35,2.16-.89-.12-.55-1.39-.47-2.18.59-6,.87-11.94,1.6-17.9a103.89,103.89,0,0,0,0-28.4C35.69,141.84,34,127,34.58,112,34.81,106.25,35.62,100.71,38.23,95.52Z"/><path class="cls-1" d="M515.82,250a215.69,215.69,0,0,1-10.52,41,206.12,206.12,0,0,1-23.11,44.61c-3.5,5.08-7.34,9.88-11,14.82-.94,1.26-1.05,2.43.31,3.45,1.21.91,2.3.32,3.08-.58,2-2.26,3.91-4.55,5.7-6.94A207.8,207.8,0,0,0,510,291.84c5.18-14.47,9.18-29.22,10.61-44.53.4-4.31,1.57-7.07,5.87-8.67,4.78-1.77,7.6-5.84,9.36-10.48,1.67-4.39.66-5.8-4-5.91-4.49-.1-9,0-13.49,0v0c-4.66,0-9.32-.11-14,0-3.67.11-4.4,1.17-3.64,4.69a13.15,13.15,0,0,0,1.62,4.17,18.74,18.74,0,0,0,9.59,8.33c4.52,1.68,4.72,2.27,4.33,7.07C516.17,247.71,516,248.87,515.82,250Z"/><path class="cls-1" d="M334,68.89c3.72-.84,7.56-.31,11.25-1,1.87-.38,4.45-1.71,4.34-3.39-.16-2.58-3-.72-4.48-1.37-4.33-.58-7.95,1.76-11.88,2.75A1.48,1.48,0,0,0,332,67.69,1.72,1.72,0,0,0,334,68.89Z"/><path class="cls-1" d="M401.59,95a1.09,1.09,0,0,0,1.32-1.07c.19-1.87-2.71-4.94-4.79-5a2.08,2.08,0,0,0-2.31,1.46C395.42,91.57,399.54,94.84,401.59,95Z"/><path class="cls-1" d="M320.93,71.84c3.23,1.15,6.71,1.69,9.44,4a1.37,1.37,0,0,0,1.8.17,1.21,1.21,0,0,0,0-1.78,26.42,26.42,0,0,1-3.08-5.61,3.05,3.05,0,0,0-3-1.77c-1.81.19-3.38,1.57-5.24,2.21-.75.26-1.71.52-1.46,1.63C319.59,71.44,320.29,71.62,320.93,71.84Z"/><path class="cls-1" d="M440.56,380.13a196.93,196.93,0,0,1-48.1,28.1,232.16,232.16,0,0,1-28.39,9.46c-8.53,2.34-17.34,3.19-26,4.65-2.75.46-4.61-.41-5.82-3.33-2.89-7-8-11.3-15.87-11.74-8.25-.45-14,3.33-17.84,10.41-2.78,5.11-3.3,5.31-9.49,4.33-13.49-2.16-26.8-4.92-39.75-9.47a220.83,220.83,0,0,1-41.39-19.62c-7-4.23-13.44-9.22-20-14.08-1.15-.85-2.48-2.13-3.93-.52-1.62,1.81-.15,3,1.07,4.17.48.46,1.07.79,1.6,1.21a209.91,209.91,0,0,0,32.71,21,203.2,203.2,0,0,0,71.59,22.13c3.41.4,5.65,1.33,7.12,4.93,2.65,6.53,7.61,11,14.86,11.88a17.89,17.89,0,0,0,19.26-11.89c1.17-3.12,2.83-4.49,6.05-4.83a207.16,207.16,0,0,0,103.65-42c3.24-2.55,5.93-3.69,10.27-2,9.08,3.54,17.94.26,22.64-7.46,4.39-7.22,2.48-14.07-4.94-18a21.34,21.34,0,0,0-10.64-2.15,23.57,23.57,0,0,0-7.44.71c-8.83,2.87-14.5,8.45-9.27,18.3C444,377.16,442.52,378.55,440.56,380.13Z"/><path class="cls-1" d="M37.67,388.31c8.67,11.94,19.17,22,30.76,31.1a100.11,100.11,0,0,0,43.31,19.36c12.57,2.44,25.17,4.68,37.74,7.1,2.93.57,5.8,1.47,8.69,2.22.64.17,1.42.5,1.85-.09.62-.84-.18-1.52-.68-2.11-.64-.77-1.37-1.46-2.08-2.16-7.64-7.44-13-16.44-17.39-26-5.17-11.19-9.06-22.9-12.82-34.59-5.59-17.35-14.43-32.83-25.2-47.34-1.58-2.13-3.28-4.19-5-6.18-.73-.83-1.48-2.4-2.67-1.86-1.38.62-.28,2-.06,3.08,0,.17.08.33.12.49,4.51,14.86,6.4,30.25,9.11,45.47,2.31,12.91,6.16,25.16,14,35.89,4.73,6.43,10.34,12.08,15.51,18.25a42,42,0,0,1-11-6.85,130.31,130.31,0,0,0-22.55-15.55C87,402.07,74.36,396.1,62,389.69c-13.14-6.8-24.88-15.4-33.74-27.48-1.38-1.87-2.55-3.89-3.83-5.83-.29-.42-.8-.82-1.25-.53a1.58,1.58,0,0,0-.59,1.25,12.55,12.55,0,0,0,.6,2.91A107,107,0,0,0,37.67,388.31Z"/><path class="cls-1" d="M110.7,240.06c-2.75.44-1.61,3.31-1.42,5.05a192.39,192.39,0,0,0,8.4,39.45,206.17,206.17,0,0,0,35.57,65.91c2.42,3,3.09,5.19,1.24,8.82-3.4,6.65-.56,13,6.47,15.67a25.28,25.28,0,0,0,10,1.89,28,28,0,0,0,11.43-2.14c5.91-2.4,8.2-7.13,6.63-13.29-2.9-11.39-14.91-17.18-25.49-12-3.16,1.56-4.69.76-6.62-1.7a205.54,205.54,0,0,1-43.22-103.09C113.46,242.66,113.94,239.53,110.7,240.06Z"/><path class="cls-1" d="M631.21,177.14a1.78,1.78,0,0,0-1,1.86c0,18.64-6.46,35.48-14.36,51.95a183.12,183.12,0,0,0-15.56,47.23c-.81,4.54-1.16,9.28-4.15,13.8-.65-1.87,0-3.1.32-4.37,1.62-7,2.87-14,1.76-21.25-2.73-17.91-9.82-34.06-19.34-49.32-5-8-10.59-15.8-12.58-25.35A9.84,9.84,0,0,0,564.9,189c-.14-.25-.46-.57-.71-.58-.62,0-.73.56-.76,1-.08,1.16-.11,2.33-.12,3.5-.08,9,1.42,17.86,2.72,26.76,2.83,19.34,8.21,38,13.94,56.6,2.19,7.12,4.42,14.26,5.44,21.73,1,7.7-.14,15.29-.35,22.92,0,.79-.37,1.9.58,2.18s1.25-.9,1.65-1.53c5.8-9.15,12.71-17.44,19.67-25.72,12.19-14.5,22.38-29.82,26.23-49.12,3.13-15.67,4.82-31.18,3.38-47A86.19,86.19,0,0,0,631.21,177.14Z"/><path class="cls-1" d="M571.55,60.29c-5.89-5.4-12.24-10.2-20.42-12.16a72,72,0,0,1,13.66,20.74c3.11,7.47,4.55,15.32,6.18,23.1,2.43,11.57,4.88,23.08,9.5,34a19.49,19.49,0,0,1,1.69,6.8c-.54-.29-.93-.36-1-.58-7.34-14.76-19.18-25.19-32.48-34.4-10.37-7.19-21-14.27-27.43-25.72-.4-.71-.94-1.61-1.87-1.36-1.27.34-1,1.63-.91,2.52a52.27,52.27,0,0,0,6.68,19.21c7.31,13.11,17.64,23.69,29.16,33.12,12.86,10.52,26.56,20.17,35.14,35,.37.63.83,1.74,1.78,1.2.73-.42.51-1.53.47-2.34a139.56,139.56,0,0,1,.47-24.45,140.51,140.51,0,0,0-.08-34.29C590,84.55,583.43,71.16,571.55,60.29Z"/><path class="cls-1" d="M531.92,38.54c-8.75-7.07-18.84-11.85-29-16.49-3.61-1.65-7.44-2.85-11.07-4.52-.56-.26-1.37-.61-1.84-.05s0,1.24.44,1.75a17,17,0,0,0,1.36,1.46,168.27,168.27,0,0,1,17.61,21c5.33,7.43,10.81,14.77,16.09,22.24,8.29,11.74,19.88,20,30.62,29.15,1.64,1.4,3.28,2.82,5,4.09,1,.71,2,.68,1.86-1.06a26.2,26.2,0,0,0-.85-2.8C559,86,557.41,78.1,554.78,70.57A70.43,70.43,0,0,0,531.92,38.54Z"/><path class="cls-1" d="M637.32,274.26c0-.8,0-1.93-.91-2.09-1.11-.19-1,1-1.24,1.74-2.93,8-6.46,15.65-11.7,22.47a244.16,244.16,0,0,1-21.6,24.18c-11.33,11.29-22.36,22.76-30.35,36.82a34.54,34.54,0,0,1-8.32,10.32c.15-4.08,3-6.12,4.18-9,7.27-17,9.52-34.41,6.11-52.71-2.58-13.86-7.06-27.48-6-41.88,0-.61-.13-1.67-.48-1.81-1-.38-1.45.63-1.79,1.31A30.18,30.18,0,0,0,564,266.9c-4.8,12.73-6.55,26.16-8.32,39.48-1.9,14.34-2,28.88-4.19,43.21-1.41,9.18-2,18.49-4.89,27.46-2,6.07-5.24,11.49-7.62,17.33-.3.74-1.11,1.55-.44,2.26,1,1,1.76-.12,2.53-.62,5.86-3.8,11.69-7.64,17.58-11.41,14.7-9.42,29.47-18.67,42.51-30.47,15.12-13.68,26.86-29.38,32.61-49.23C636.68,294.86,636.84,284.55,637.32,274.26Z"/><path class="cls-1" d="M446.7,61.51c-1.24-1.1-2.48-2.22-3.81-3.22a207.56,207.56,0,0,0-75.1-37.16,224.33,224.33,0,0,0-29.46-5.4c-3-.39-5.17-1.2-6.42-4.47A17.3,17.3,0,0,0,323.2,2c-9-4.48-19.06-1.26-24.19,8.29-2,3.71-4.4,5.28-8.45,5.66a171.35,171.35,0,0,0-34.25,6.83A208.19,208.19,0,0,0,184.4,60.85c-2,1.66-4,2.19-6.44,1.3a20,20,0,0,0-6.85-1.29c-8.13,0-16.16,6.34-17.54,13.82-.21,1.12-.58,2.47.75,3.08,1.16.53,1.7-.68,2.37-1.36,5.64-5.72,12.4-7.54,20.13-5.57a17.65,17.65,0,0,1,9.58,6c.5.6,1.16,1.37,2.11.9s.85-1.35.68-2.18a18.81,18.81,0,0,0-1.75-5.19c-2.32-4.34-2.35-4.4,1.64-7.54a211.57,211.57,0,0,1,26.17-17.41,199.12,199.12,0,0,1,39.81-17.16,181.92,181.92,0,0,1,35.09-7.5c5.36-.57,5.52-.41,7.89,4.49,3.13,6.44,8,10.67,15.27,11.41,8.58.88,16-3.9,19-12.22,1-2.87,2.53-4.12,5.46-3.84,1.16.11,2.33.11,3.49.23,18.38,1.93,35.94,7.13,52.88,14.21a195.86,195.86,0,0,1,46.69,27.65A33.24,33.24,0,0,0,444.11,65a2.3,2.3,0,0,0,3.16-.48C448.28,63.35,447.64,62.35,446.7,61.51ZM315.28,32.23c-7.2.07-13.77-6.51-13.74-13.76A13.7,13.7,0,0,1,315.28,4.88c7.81.11,13.4,5.92,13.29,13.84A13.61,13.61,0,0,1,315.28,32.23Z"/><path class="cls-1" d="M610.47,370.13c2.29-5,4.1-10.09,4.34-15.7a85.84,85.84,0,0,1-24.37,26.19c-10.66,7.52-22.46,13-34.1,18.69-10.15,5-20.43,9.76-29.65,16.41-5.81,4.19-11.45,8.6-17.18,12.89a9.4,9.4,0,0,1-4.86,2.3c.49-2,1.9-2.81,3-3.78,15.5-14.23,24-32,27.18-52.62,2.32-14.93,3.93-30.05,9.14-44.4.33-.92.85-2.11-.3-2.63s-1.74.65-2.36,1.42a211.1,211.1,0,0,0-18.89,27c-8,14-12.45,29.37-17.82,44.4-4.49,12.57-9.42,24.88-17.58,35.65-2.32,3.07-4.94,5.83-7.53,8.63-.88.95-2.61,1.82-1.79,3.17s2.43,0,3.7,0a3.25,3.25,0,0,0,1-.17c11-3.63,22.48-4.55,33.72-6.78,10.14-2,20.22-4.11,29.88-7.85,13.29-5.13,24.31-13.73,34.71-23.14C593.09,398.47,603.4,385.5,610.47,370.13Z"/><path class="cls-1" d="M74.19,437.24c5.24,7.85,12.27,14,19.39,20,19.55,16.65,42.2,24.22,67.72,23.27,14-.53,27.66-3.71,41.3-6.82,12.3-2.81,24.18-7.54,37-8.15.94-.05,2.3.09,2.41-1.21s-1.12-1.61-2.08-1.73c-5.34-.69-10.27-2.77-15.31-4.43a76.8,76.8,0,0,1-25.39-13.52c-11.3-9.35-21.29-20.1-32.1-30-8.73-8-17.5-15.86-27.16-22.7-.53-.37-1.19-1-1.77-.47s0,1.2.29,1.75c2.31,4.23,4.69,8.43,7,12.69,5.57,10.4,10.36,21.22,17.37,30.83,8,11,18.28,18.74,31.72,21.8a31.56,31.56,0,0,1,7.9,3.12,12,12,0,0,1-7.42,0,119.78,119.78,0,0,0-25-4.3c-16.61-1.13-33.24-2.18-49.74-4.26s-31.74-7.34-44.66-18.23a24.13,24.13,0,0,0-1.9-1.61,1.64,1.64,0,0,0-1.3-.3c-.49.25-.3.9-.06,1.3C72.89,435.31,73.55,436.27,74.19,437.24Z"/><path class="cls-1" d="M314.46,43.29c-96.76-.55-178.39,78.56-179.07,177.87C134.72,320.31,216,401.25,314.91,401.1c96.56-.14,178.52-78.83,178.75-178.71C493.89,124.11,413.48,42.62,314.46,43.29Zm2.81,9.3c.11-4.32.59-4.67,5.05-4.78,6.54-.15,12.88,1.47,19.3,2.31C362,52.77,381,59.66,399,69.48a156.69,156.69,0,0,1,33.77,24.57c3.26,3.15,3.19,3.37,0,6.71-4.28,4.43-8.67,8.75-13,13.07-1.62,1.59-2.28,2.15-4.85-.09-4.07-3.54-4.59-9-8.68-12.3-4.78-3.86-9.84-6.93-15.78-8.46-1.51-.4-2.9.53-4.32,1a14.25,14.25,0,0,1-10.64-.64C359.33,86.13,342.73,81,325,80.2c-1.32-.06-2.64-.31-4-.4-2.68-.17-3.79-1.63-3.76-4.24.05-4,0-8,0-12h0C317.25,59.92,317.18,56.25,317.27,52.59Zm71.9,276.86c-1.09-.71-.81-1.86.17-2.46,1.64-1,2.39-2.76,3.6-4.11,3.34-3.73,3.24-4.59-.7-8-1.75-1.53-3.65-2.9-5.34-4.5a5.25,5.25,0,0,1,2.12-8.77,2.11,2.11,0,0,1,2.29.53c1.53,1.53,3.36,2.88,4.47,4.67,1.36,2.2,1.69,5.12,5.21,5.17.38,0,.89,1.32,1.08,2.1.77,3.18,1.78,6.08,5.57,6.84a1.07,1.07,0,0,1,.65,1.89c-5.14,5.52-11.35,9.72-17.43,14.09a1.41,1.41,0,0,1-.49.12c-1-.33-.61-1-.3-1.53C391.43,333.19,391.82,331.17,389.17,329.45Zm-4.59-61.79c-.15-2-.78-3.67-3-4a3.29,3.29,0,0,0-3.92,2.34c-.82,2.7-3.4,2.93-5.31,4.08a1.26,1.26,0,0,1-1.77-.39,1.12,1.12,0,0,1,.58-1.65c2.55-.82,3.75-3.22,5.72-4.66a16.21,16.21,0,0,0,5.77-7.33c1-2.49,2.95-3.42,5.41-4.51,4.08-1.8,8.35-2.18,12.51-3.25,2.41-.63,4.39-2.29,6.93-2.73,1.85-.32,1.74-1.81.73-3.05-1.26-1.54-2.48-3.27-4.48-3.84-3-.85-4.23-2.9-4.71-5.77a9.55,9.55,0,0,0-2.68-5.25c-2-2.06-.82-2.92,1.33-3,3-.14,6,0,9,0v-.06c2.17,0,4.33-.06,6.49,0,4.92.14,5.53.83,5.23,5.56a99.74,99.74,0,0,1-5.2,25.85,101.2,101.2,0,0,1-18.8,33.22c-3.42,4-3.45,4-5.27-.77-.35-.94-.73-1.86-1-2.81-1.32-3.94-1.32-3.95-4.6-1.38-.52.41-1,1-1.71.61a1.38,1.38,0,0,1-.49-1.76,38.82,38.82,0,0,1,1.4-3.72A24.13,24.13,0,0,0,384.58,267.66Zm-43.46-79.72c.47,3.09-.6,4.12-3.35,2.87a38.39,38.39,0,0,1-5.47-3.46c-1.78-1.21-.52-2.67-.24-4,.23-1.14.65-2.42-.61-3.15s-2.15.34-3.06,1c-1.17.91-2.07,2.21-3.57,2.66-4.19,1.23-7.44-1.17-7.49-5.62-.07-6.32-.14-12.65,0-19,.06-4,.88-4.62,5.55-4.45,7.8,1.43,16.23,3.31,23.83,7.77,4,2.36,8.08,4.64,11.55,7.79.54.49,1.53,1.11.89,2-.42.58-1.19-.17-1.8-.21-3.54-.21-3.84.39-2.16,4a2.38,2.38,0,0,1,.19,1.41c-.61,2.88-6.29,6.32-9.4,5.74C341.86,182.56,340.5,183.86,341.12,187.94Zm64.22-8.8c5,2.72,7.35,7.52,8.82,12.74.81,2.89,2,6-2,8-1,.47-1.36,2.21-1.86,3.43a4.51,4.51,0,0,1-4.26,2.93c-2.07.12-3.37-.46-2.17-2.88.22-.44.32-.94.52-1.4,1.15-2.73,2.13-5.56-1-7.56-3-1.88-5.37-.52-7.36,1.93a3,3,0,0,1-2,1.4c-.27-.14-.81-.3-.81-.43.37-4.57-5.36-4.47-6.25-8.26-.41-1.73-2.42-2.76-4.32-3-7.22-1-9.94-7.2-13.81-12-1-1.28-.44-2.56.58-3.57,6.11-6.12,12.26-12.2,18.38-18.32a2.06,2.06,0,0,1,3.43.18c4.44,5.56,9.84,10.39,13,17,.74,1.54.06,2.26-.8,3.44C400.85,176.22,401.35,177,405.34,179.14Zm12.37,34.7c2.24,2.72.54,5.41-3,5.7-.83.07-1.66,0-2.86,0-1.48-.26-3.7.75-4.88-1.76-.52-1.1-1.37-.67-1.85.2-.88,1.63-2.41,1.56-3.91,1.57-.82,0-1.85.15-2.29-.64-.61-1.09.16-1.84,1.06-2.41.14-.09.36-.17.4-.29,1.18-4.44,3.69-6.92,8.64-6.39,1.18.13,1.88-1.26,2.46-2.27a9.37,9.37,0,0,1,3.15-3.14c.55-.37,1.14-.93,1.79-.55.95.55.55,1.47.24,2.21C415.45,208.89,415.52,211.18,417.71,213.84Zm-51.9-31.65c-1.36-1.11-2.82-.35-4.06.63-.39.3-.7.72-1.09,1-1,.71-1.52,2.81-3.07,1.54s-.16-2.7.77-3.8a6.92,6.92,0,0,1,7.62-2.31c2.49.7,5,4.9,5.15,8.15.6,2.39-1.49,2.32-3,2.84-1.09.38-.83,3.18-2.6,1.86-1.29-1-1.55-2.9-1.1-4.62.16-.62.74-1.12.92-1.74C365.74,184.59,367.25,183.35,365.81,182.19Zm18-32.53c-5.77,5.77-11.59,11.49-17.34,17.28-1.78,1.79-3.29,1.58-5.2.07A88.3,88.3,0,0,0,345,156.52a73.11,73.11,0,0,0-20.5-6c-7.16-1.14-7.21-.93-7.22-8.41,0-6.66-.07-13.33.05-20,.07-3.71.88-4.29,4.56-3.94a104.48,104.48,0,0,1,51.35,17.67,75.81,75.81,0,0,1,10.59,9.1C385.48,146.61,385.39,148.11,383.84,149.66ZM353.89,255.19c1.19-1.8,2,.78,3.22.95a16.36,16.36,0,0,1,3.67,1.49c.94.39,2.1.82,1.87,2-.32,1.73-1.8.89-2.77.94-1.53-.27-3.14.08-4.35-1.09S352.85,256.79,353.89,255.19Zm1.52,28.62c.49-1.62,1.85-1,2.87-.47,5.48,2.85,11.65,3.42,17.41,5.33.75.25,2,.09,2.06.94.07,1.49-1.39.91-2.24,1.07a13.08,13.08,0,0,1-2.31,0,12.64,12.64,0,0,1-6.86-1.5,48.2,48.2,0,0,0-8.77-3.25C356.6,285.64,354.94,285.39,355.41,283.81Zm52.48,18.45c-2.31-.6-3.12,1.43-4,3-.64,1.16-1.29,1.43-2.3.48-.48-.45-1.06-.82-1.52-1.29-8-8.35-7.42-5.94-1.18-13.61a107.83,107.83,0,0,0,24-58.12c.86-8.23,1-8.21,9.31-8.22,4.65,0,9.31,0,14,0,5.87.05,6.26.51,5.72,6.37-.07.67-.15,1.33-.19,1.67-1.44,22.88-8.72,43.57-20.41,62.73a115.18,115.18,0,0,1-14.8,19.38c-.75.79-1.46,2.1-2.82,1.54-1-.42-.91-1.68-1.09-2.63-.41-2.12-.75-4.25-1.12-6.38S410.27,302.88,407.89,302.26Zm39.44-82.69h-9.49v0c-3.49,0-7,0-10.48,0-2.4,0-3.77-1-3.89-3.49-.27-5.79-2-11.45-1.06-17.35.41-2.58.39-5.29-2.37-7.12-1.6-1.06-1.58-3.23-2.19-4.93-1.88-5.23-2.41-11.06-6.88-15.12-.23-.21-.49-.64-.42-.88,1.45-4.9-2.73-6.24-5.08-9.12-3.18-3.91-5.41-8.53-9.33-12.06-2.48-2.25-.05-7.75,3.29-8.31,1.84-.31,2.65,1.09,3.46,2.35s1.54,2.54,3.1,1.6c2.93-1.75,3.43.31,4,2.32a5.11,5.11,0,0,0,3.07,3.7c3.63,1.3,6.46,4,10,5.58s5.51,5.15,8,8c2.23,2.64,4.09,5.31,8.24,3.41,1.82-.83,2.66.89,3.18,2.32,3.35,9.24,6.53,18.53,7.9,28.3.72,5.11,1.29,10.24,1.77,15.37C452.49,218.79,451.85,219.42,447.33,219.57Zm-124-135C339.56,86,355.24,89.43,370.15,96c1.74.78,3.88,1.42,4,4,0,.16,0,.41.12.47,5.2,2.9,6.7,8.13,8.7,13.19.66,1.68,1.66,3.14,1.56,5-.13,2.23.95,4.2,1.46,6.29.59,2.46,1.86,3.13,4.4,2.14,3.82-1.5,6-.81,7.81,1.88,1.37,2,1.64,4,0,6a39.74,39.74,0,0,1-3,3.37c-1,1-2.07,2.76-3.62,2.17-1.85-.7-.58-2.51-.61-3.9-.09-4.05-3.14-6.32-6.19-7.66a11.42,11.42,0,0,1-5.53-4.5,20.43,20.43,0,0,0-6.08-5.84,1.31,1.31,0,0,0-1.81.14,1.09,1.09,0,0,0,.12,1.73c4.57,2.94,3.67,9.41,8.08,12.45a.73.73,0,0,1-.1,1.24,1.08,1.08,0,0,1-.94-.06c-2.89-2-5.78-3.91-8.6-6-1-.72-1.09-1.64.26-2.25.76-.34,1.66-.72,1.38-1.73a2.49,2.49,0,0,0-2.28-1.68,4.34,4.34,0,0,0-2.44.29c-3.72,2.15-6.82.44-10.27-1a100.29,100.29,0,0,0-31.26-8.08c-8.34-.69-8.06,0-8.05-8.91.13-2.71-.45-5.77,1.35-8.49.87-1.3.07-2.34-.43-3.63C315.83,86.67,317.5,84.08,323.37,84.6Zm-9.62,105.58c-.07.45-5.88,2.12-6.16,1.79a5.92,5.92,0,0,1-.62-1.19,2.89,2.89,0,0,1,2.35-2.45c1.45-.42,3-.81,4.18.49A1.82,1.82,0,0,1,313.75,190.18Zm-2.12,82.49c.44,2.23,0,3.7-2.61,3.57-3.53-.18-4.08,2.42-4.32,4.9s1.44,3.92,3.86,4.38c.49.1,1,.11,1.49.2.67.11,1.35.31,1.31,1.17a1.32,1.32,0,0,1-1.27,1.3c-3,.18-5.89,1.16-8.89.48a70.88,70.88,0,0,1-29.86-14.28c-2.64-2.18-2.72-3.13-.25-5.67,4.85-5,9.86-9.88,14.75-14.85,2-2.05,3.84-1.91,6.12-.28a36.14,36.14,0,0,0,14.92,6.56c4.26.74,4.46,1.19,3.93,6.75C311,268.12,311.2,270.41,311.63,272.67Zm.22,82.52c0,4.08-.29,4.3-4.7,4.33-10.25.07-20.21-2-30-4.76A135.14,135.14,0,0,1,228.64,330a65.82,65.82,0,0,1-7.37-6.69c-1.06-1.15-2.25-2.18-.83-3.79,1.17-1.33,2.11-.54,3.42.12,3.95,2,8.21,1.59,12-.15a20.25,20.25,0,0,1,8.11-2c6.5-.18,7.29-1.35,5-8.32A123.73,123.73,0,0,0,276.08,324a99.77,99.77,0,0,0,30.55,6.75c5.23.28,5.2.34,5.19,5.51C311.8,342.54,311.86,348.87,311.85,355.19Zm-93-117.86c.82,1.49,0,2.57-1.13,3.42s-2.09.15-3.09-.57c-3.1-2.23-3.83-4.07-4-10.63-.09-4.31.4-4.85,4.76-5a30.46,30.46,0,0,1,4.48.16c1.44.16,2.05.94,1.31,2.42-.59,1.19-1,2.48-1.61,3.64C218.44,232.87,217.52,234.94,218.84,237.33Zm-3.08,79.36c-1.14.26-3.85-2.16-3.76-3.36.06-.75.61-1.1,1.46-1.22a4,4,0,0,1,3.29,3.1A1.19,1.19,0,0,1,215.76,316.69Zm-21.07-58c.49,3-2.32,5.19-6.31,5.74s-5.23,0-6.22-3.78c-2.73-10.31-5-20.7-4.93-31.46,0-4.14.23-4.5,4.51-4.63,3.16-.1,6.32,0,9.48,0v.05c3.5,0,7,0,10.49,0,2.4,0,3.66,1.25,3.81,3.67.11,1.82.29,3.65.49,5.46a4.15,4.15,0,0,1-1.55,3.86C198.48,243.29,193.18,249.33,194.69,258.68Zm11-44.57c-.56,5.35-.66,5.39-6.1,5.47h-9v0c-3.33,0-6.66-.06-10,0-2.57.07-3.53-1-3.41-3.62a132.13,132.13,0,0,1,1.6-17.88c4.74-25.6,15.47-48.31,32.94-67.73,3.59-4,3.79-4,7.74-.07,4.26,4.2,8.55,8.37,12.75,12.62,3.33,3.38,3.42,4.34.22,8C216.41,169,208.18,190.32,205.66,214.11Zm5.31-2.77c2-20.65,9.68-38.91,22.58-55.07,5.3-6.65,5.5-6.64,11.45-.47,4.39,4.55,9,8.9,13.43,13.39,3.12,3.15,3,3.44.26,7a80.44,80.44,0,0,0-5.74,8.16c-1.74,2.93-3.47,5.68-6.9,6.86-.93.32-2.21,1.09-1.72,2.08,1.48,3-.55,3.7-2.57,3.86-9.17.73-11.66,7.85-13.92,14.8-2.46,7.55-2.17,7.64-9.78,7.64C210.09,219.59,210.17,219.57,211,211.34Zm101-66.06c.23,3.23-1.06,4.51-4.14,4.8a84.37,84.37,0,0,0-10.31,1.74c-11,2.44-20.47,7.83-29.14,14.7-2.75,2.18-4.28,2-6.62-.46-5-5.29-10.43-10.24-15.61-15.4-3.3-3.3-3.19-4.78.27-7.72,17.58-15,38.1-22.73,60.89-24.91,4.05-.39,4.63.2,4.63,4.28V133.8h0C311.87,137.62,311.66,141.47,311.93,145.28ZM288.44,309a42.54,42.54,0,0,1,4.68,7.63c1.72,3.17,4.85,4.39,8.12,5.19,2.57.63,5.2,1,7.8,1.59.95.19,2.28.22,2.26,1.48,0,1.75-1.59,1.27-2.65,1.37a9.48,9.48,0,0,1-1.5-.07c-20.67-1.85-39.73-8.2-56-21.35-9.81-7.93-9.74-6.57-.92-15.24,4-4,8.11-7.87,12-11.95,1.87-1.95,3.26-2.09,5.45-.32A87.51,87.51,0,0,0,284,287.85c3.31,1.63,6.92,2.36,10.32,3.68,2.68,1,3.05,2.34.71,3.72-4,2.36-4.69,6.71-7,10.08A2.77,2.77,0,0,0,288.44,309Zm-29.57-34.31c-5.48,5.32-10.82,10.79-16.29,16.13-1.11,1.08-2.15,3.11-4.08,2.11s-3-3-2.07-5.89c.57-2.64-1.12-5.09-2.25-7.61-2-4.45-3.46-8.77-1.35-13.68.85-2-.32-4-1.92-5.28a5.21,5.21,0,0,1-2.07-4.33c.17-4.31-1.72-7.83-4.5-10.75a10.47,10.47,0,0,1-2.27-10.64c1.43-3.62,4.93-6.89,8.07-9.58,1.59-1.36,5.14-.67,7.78-.5,3.58.23,4.71,2.36,2.69,5.4-1.23,1.86-1.78,3.24-.8,5.41.59,1.31-1,4,2.53,2.61,1.48-.58,1.78,1.06,2,2.18,2.59,10.72,7.85,20.05,14.86,28.44C261.15,271,260.92,272.67,258.87,274.66ZM232,216c-.13-2.94,1.87-4.81,5-4.78,3.83,0,5.35,1.07,5.29,3.66-.08,3.45-1.58,4.73-5.8,4.66C234.27,219.64,232.09,219.19,232,216Zm49.81,35.63c-4.56,4.61-9.13,9.2-13.79,13.71-2.89,2.79-3.32,2.67-5.87-.34a66.84,66.84,0,0,1-13.35-26.48c-.25-.93-1-2.22.69-3.16,2.41,4,7.54.77,10.64,4.4,1.73,2,4.81,3.11,6.37,5.71.08.13.28.31.39.29,4.66-1,4.23,3,5.4,5.44.82,1.72,1.86,2,2.67.13,1.11-2.59,3.19-4.64,3.78-7.54.42-2.08,1.63-2.13,3.15-.57C285.53,247,285.61,247.75,281.77,251.64Zm-3-58.45c-3.93.64-6.9-1.22-9.89-3.42-6.07-4.48-6.88-4.43-13.62-.1,2.17-4.89,5.21-8.5,8.31-12.07.92-1.06,2.07-.92,3.05,0q6.72,6.62,13.41,13.26a1.52,1.52,0,0,1,.51,1.78C280.22,193.37,279.44,193.09,278.81,193.19Zm-8.47-18.35c-2.14-2.13-.53-3.51,1.06-4.88a61.11,61.11,0,0,1,22.53-12.35,58.81,58.81,0,0,1,12.6-2.83c4.79-.35,5.22,0,5.26,4.68,0,3.32,0,6.64,0,10h.08c0,3.49-.06,7,0,10.46.05,2.18-.71,3.58-3.05,3.62-2.57,0-4.89,2.32-7.68.75-1.13-.64-1.71.59-2.46,1.18-2.48,1.95-5.06,3.77-7.46,5.8-1.76,1.5-3.12,1.34-4.7-.25C281.18,185.56,275.73,180.23,270.34,174.84Zm37.56-61.41c-13.67.51-26.52,4.32-38.91,9.94a99.57,99.57,0,0,0-25.1,16.09c-4.41,3.9-4.89,4-9-.06q-6.42-6.28-12.68-12.71c-3.54-3.62-3.5-3.66.43-7.27a132,132,0,0,1,29.09-20c16.33-8.43,33.82-12.93,52-14.58,8.06-.72,8.08-.45,8,7.4,0,2.33,0,4.66,0,7h.14c0,3.33-.14,6.67,0,10C312.12,112.2,310.84,113.32,307.9,113.43Zm-111-20.11A177,177,0,0,1,222.7,73.77a169.61,169.61,0,0,1,57.77-22.56c8.64-1.6,17.36-3.09,26.2-3.35,5.12-.15,5.19,0,5.15,5.33,0,3.5,0,7,0,10.49h.06c0,4-.12,8,0,12,.11,2.67-.76,4.14-3.57,4.19-1,0-2,.2-3,.26-32.79,2-61.18,14.51-85.8,36-4.08,3.56-4.22,3.63-8.09-.16q-7.5-7.32-14.85-14.78C192.88,97.38,192.78,97,196.87,93.32Zm-53.65,95.84a196.09,196.09,0,0,1,8.58-29.65,189.28,189.28,0,0,1,15.36-30.7,165.39,165.39,0,0,1,18.43-24.15c3.45-3.79,4.46-3.82,8-.28,4.93,4.93,9.87,9.86,14.75,14.84,3.71,3.79,3.73,3.88.4,7.64A144.69,144.69,0,0,0,187.37,158a136.14,136.14,0,0,0-13.26,40.58c-.82,5.42-1.72,10.82-2.07,16.31-.26,4.12-.82,4.51-4.87,4.62-3.66.1-7.33,0-11,0v0c-3.82,0-7.65-.06-11.48,0-2.93.07-4.25-1.15-4.16-4.15C140.81,206.6,141.3,197.79,143.22,189.16Zm43.23,151.38a171.43,171.43,0,0,1-36.27-59.79c-5.76-16.41-9.42-33.32-9.63-50.83-.06-4.73.41-5.23,5-5.37,3.5-.1,7,0,10.5,0,3.33,0,6.67-.06,10,0,5.05.1,5.52.35,5.89,5.28.48,6.32,1.54,12.55,2.53,18.8a69.46,69.46,0,0,0,2.83,11.63c.43,1.24,1.11,2.69-.21,3.69a3.23,3.23,0,0,1-3.8,0c-3.81-2.95-7-2.37-9.77,1.36-.55.74-1.31,1.1-2.12.43a1.15,1.15,0,0,1,0-1.76c2.16-2.45-.08-2.38-1.51-2.49-3.65-.28-7.11,1.87-7.45,5.16-.7,6.68-.14,13.29,2.87,19.47.51,1,.86,2.37,2.35,2.19,1.83-.22,1.68-1.73,1.72-3.08,0-1.09-.69-2.56.78-3.08s2.5.63,3.27,1.74c1.15,1.67,2.35,2.86,4.51,1.54a1.78,1.78,0,0,1,2.62.58c1.38,2.29,3.8,3.07,5.82,4.49,2.64,1.86,5.45,3.63,6.48,7.2.68,2.34,2.76,3.7,5.32,3.95,1,.1,2.26-.13,2.85.67,5,6.77,14.18,8.53,18.69,16,1.37,2.27,1.78,3.61-.17,5.54-5.69,5.62-11.22,11.38-16.91,17C190,343.41,189.12,343.42,186.45,340.54Zm121.22,55.74c-12.71-.12-25.15-2.39-37.4-5.47a166.89,166.89,0,0,1-41.08-16.52A181.44,181.44,0,0,1,196.92,351c-4-3.62-4-4-.28-7.86,5.1-5.24,10.29-10.4,15.51-15.51,2.89-2.82,3.58-2.83,6.66-.07a141.93,141.93,0,0,0,42.42,26.67c13.2,5.22,26.76,9.06,41.08,9.6,9.48.35,9.48.4,9.46,9.76v7h.15V392C311.92,396,311.64,396.32,307.67,396.28Zm.82-140.47c-5.11-1-10-2.7-14-6.18-2-1.75-1.88-2.91.51-4,2.16-1,4.55-.94,6.86-1.08,1.57-.1,3-.32,4.08-1.5,2.86-3.13,4.37-7,5.5-11a3.44,3.44,0,0,0-.68-3.33c-2.33-2.06-4.63-4-5.83-7.06-.45-1.15-2-1-3,0a6.91,6.91,0,0,0-1.51,2.53c-2,4.28-2.83,9.1-7.36,12-1.92,1.25-2.88,4-3.41,6.52-.31,1.46-.92,1.51-2,.46a12,12,0,0,1-3.52-9.69c.88-2.59-.05-4.7-2.31-6.36a2.77,2.77,0,0,1-1.15-2.14c-.08-1.43-.87-3.68.67-4,2.28-.49,1.61,1.7,1.62,3.12,0,1.72.82,2.51,2.56,1.74a5.36,5.36,0,0,1,2.87-.67c.8.11,1.78.15,1.95,1.16.15.85-.64,1.11-1.27,1.27a3.7,3.7,0,0,0-2.69,2.7,3.09,3.09,0,0,0,1.78,4.13c1.58.67,2.59-.47,3.09-1.75a14.51,14.51,0,0,1,5.9-7.09c2.6-1.73,2.83-5.44,4.77-8,1-1.28-.51-2.92-2.08-3.31s-2,.86-2,2.15a3.75,3.75,0,0,1-2,3.25c-1.59.89-3.09,4-3.87,3.22-1.94-2,1.75-2.44,2.15-4.1a17.48,17.48,0,0,1,3-6.8,1.39,1.39,0,0,0-.22-1.84c-3.25-2.86-.26-4.26,1.5-5.58a19.39,19.39,0,0,1,5.36-2.58c2.62-.9,4.24-2.46,4.65-5.27.29-1.93,1.18-2.83,2.93-1.14a16,16,0,0,0,7.51,3.68,10,10,0,0,1,5.8,3.66,12.92,12.92,0,0,1,1.21,2.15c.69,1.42-2.56,2.53-.6,3.71,1.18.72,1.87-1.63,3.16-2A1,1,0,0,1,329.7,208c-.48,3.45,2,7.26-1.42,10.38-1.42,1.3-.63,2,1,2a1.37,1.37,0,0,1,.86.45c1.12,1.27,2.21,2.77,2.12,4.41-.23,4.49,4.45,8.32,1.48,13.23-1.18,1.94-2.36,3.28-4.6,3-5.24-.6-7.43,2.73-9.12,6.8-.19.46-.29.95-.47,1.42C317,256.6,315.91,257.24,308.49,255.81Zm13.06,21.9c2.81-.56,5.2.78,7.75,1.44.65.17,1.42.42,1.8-.3s-.32-1.15-.81-1.61c-.67-.6-2.15-1.3-1.17-2.19,1.12-1,2.6-.25,3.37,1a13.33,13.33,0,0,0,10.91,6.57l.06-.07h.06a1.35,1.35,0,0,1-.18-.36c-.65-2.82-5.11-3.18-4.73-5.91.32-2.38,2.43-4.4,2.49-7.3,0-2.4,3-3.15,4.64-4.44,1.17-.93,4-.12,5.54,1.15,1.39,1.13.28,2.21-.9,2.55-2.42.69-4.72,1.45-6.58,3.31s-2.72,3.61-.92,5.65,3.27.62,4.66-.76a6.52,6.52,0,0,1,1.14-1c1.05-.65,2.2-1.08,3.13.06a1.93,1.93,0,0,1-.48,3c-2.49,1.53-4.56,3.95-7.81,4a.22.22,0,0,0,.05.08h-.17c-3.54,3.77-8.7,3.62-13.1,5.31-1.18.45-2.24-.45-2.78-1.61-1-2.23-2.54-2.73-4.87-1.77-2,.81-4.37,1.72-5.34-1.36C316.43,280.38,318.18,278.37,321.55,277.71Zm-4.29,67.23h0c0-3.33,0-6.66,0-10,0-2.58,1-4.05,3.77-4.18,3-.15,6-.63,9-.69a9.88,9.88,0,0,1,9.83,11.48c-.6,4.45.87,7.22,4.9,9.3a11.59,11.59,0,0,1,2.56,1.49c1.9,1.71,1.55,3.23-1,3.77-8,1.65-15.92,3.56-24.16,3.36-4.1-.1-4.65-.53-4.79-4.56C317.17,351.6,317.26,348.26,317.26,344.94Zm0-21.12c.28-2.08,2.17-2,3.54-1.57,2.16.62,6.34.71,6.1,2-.52,2.73-4.1,1.3-6,2C319,326.18,317,326.36,317.3,323.82Zm114.93,26.94a174.37,174.37,0,0,1-20.4,16c-21,13.77-43.69,23.12-68.62,27.15-6.76,1.09-13.49,1.88-20.28,2.3-5.25.33-5.6-.17-5.68-5.58,0-3.49,0-7,0-10.49h-.05c0-3.83.15-7.67,0-11.49-.16-3,1.18-4.18,4-4.46,4.63-.46,9.29-.57,13.94-1.09a120.22,120.22,0,0,0,17.07-3.64c2.38-.61,4.63-.86,6.29,1.49.92,1.31,2.13,1.23,3.55,1a18.69,18.69,0,0,0,9.89-4.47c11-10.3,24.15-17.73,35.5-27.5,7-6,5.26-6.34,12.52.54,4.35,4.11,8.48,8.45,12.59,12.79C436,347,436.12,347.3,432.23,350.76Zm56.2-121c-.54,9.45-1,18.89-3.45,28.17-1.64,6.27-2.83,12.66-4.89,18.83a177.1,177.1,0,0,1-37.43,63.6c-2.64,2.9-3.76,2.93-6.6.12-5.43-5.38-10.66-11-16.14-16.3-2.25-2.2-2.44-3.74-.19-6.2a139.09,139.09,0,0,0,17.5-23.63c8.78-15.1,15.18-31,17.62-48.46.76-5.44,1.69-10.84,1.93-16.35.19-4.47.84-4.93,5.56-5,3.49-.08,7,0,10.49,0s7-.08,10.49,0C488,224.67,488.69,225.19,488.43,229.79Zm-16.38-82.68a176,176,0,0,1,14.63,47,137.82,137.82,0,0,1,1.81,20.39c.07,4.51-.34,4.93-4.73,5-3.83.09-7.66,0-11.49,0h0c-3.5,0-7,0-10.5,0-4.27-.09-4.76-.4-5-4.43-.26-5.5-1.22-10.9-1.89-16.35-1.41-11.36-5-22-9.32-32.53-.83-2-2.17-3.77.48-5.63,1.49-1,.78-2.75-.21-4-4.52-5.68-7-12.93-13.46-17.13a8,8,0,0,1-1.88-2.32c-2-3-3.75-6.19-7.24-7.94-1.47-.74-2.06-2.53-3.05-3.85-1.76-2.34-1.54-4.2.41-6.16,5.4-5.41,10.74-10.89,16.19-16.26,1.94-1.91,3.9-1.42,5.62.49A181.62,181.62,0,0,1,472.05,147.11Z"/><path class="cls-1" d="M535.16,463.44c5.36-4.22,10.71-8.48,15.86-12.94s10.26-9.51,13.85-15.62c.4-.68,1.28-1.51.51-2.16s-1.42.35-2,.88c-13.66,12.35-30.25,17.68-48.08,19.75-16,1.86-32.15,2.88-48.24,4.14-7.1.56-14.22,1.34-21.13,3.48-3.26,1-6.74,1.92-10.44.73a22.33,22.33,0,0,1,7.21-3c14.63-3.2,25.43-11.87,33.62-24,8.58-12.73,14.07-27.18,22.16-40.18.34-.54.77-1.26.26-1.82-.74-.8-1.53-.22-2.22.24-1.52,1-3.11,2-4.53,3.1-14.92,12-28.74,25.23-42.37,38.65-11.33,11.15-23.94,20-39.39,24.48-4.15,1.21-8.21,2.7-12.48,3.45-1,.17-2.09.49-2,1.78.1,1,1.14,1,1.94,1.18a12.47,12.47,0,0,0,1.49.12c5.69.29,11.15,1.69,16.63,3.17,15.26,4.1,30.57,8.22,46.2,10.48,14.53,2.1,29.11,2.16,43.56-1.89C516.32,474.4,526.39,470.36,535.16,463.44Z"/><path class="cls-1" d="M145.14,17.7c-9.31,4-18.79,7.64-27.57,12.75-12.24,7.12-22.73,16.07-29.7,28.74-6.4,11.63-8.68,24.7-13.31,37a1.61,1.61,0,0,0,0,1.37c.58.63,1.19.11,1.69-.3,3.86-3.15,7.69-6.33,11.56-9.48C96.63,80.59,105.24,73.3,111.94,64,123,48.7,133.38,32.79,147,19.45a13.94,13.94,0,0,0,1.29-1.72C147.13,16.56,146,17.32,145.14,17.7Z"/><path class="cls-1" d="M142.43,107A204.71,204.71,0,0,0,109,199.55c-.31,3.08-1.39,5.34-4.53,6.46-5.48,2-8.27,6.52-10.33,11.54-1.43,3.47-.38,5.07,3.35,5.19,4.66.16,9.33,0,14,0s9.33.1,14,0c4-.11,4.77-1.2,3.92-5-1.36-6-5.06-9.92-10.77-12.16-5-2-5.24-2.48-4.87-7.79a29.69,29.69,0,0,1,.35-3c2.34-14.14,5.21-28.13,10.23-41.63a217.3,217.3,0,0,1,18.41-38.15,197.67,197.67,0,0,1,13.17-18.82c1.23-1.57,3.4-3.7.62-5.48-2.18-1.39-3.07,1.15-4.09,2.52C149.06,97.84,145.59,102.33,142.43,107Z"/><path class="cls-1" d="M7.26,177a5.53,5.53,0,0,0-2.5,3.87c-1.61,7.47-3.5,14.91-4.29,22.53C-1,217.29,1.06,231,3.83,244.51c3,14.86,8.33,28.74,18.14,40.6,6.47,7.82,12.83,15.71,19.16,23.63a87.76,87.76,0,0,1,8.81,12.71c.45.82.93,2.12,2,1.91,1.35-.27.72-1.62.73-2.53s-.09-1.66-.11-2.5c-.13-5.81-.93-11.56-.55-17.45.78-12,5.07-23.06,8.49-34.33A365.33,365.33,0,0,0,70.6,225.91c1.46-8,2.39-16.13,3.5-24.2a66.68,66.68,0,0,0,.23-11.48c0-.8,0-1.93-1-2s-1.07,1.08-1.27,1.81a65.63,65.63,0,0,1-7.4,17.37c-8.89,14.08-17.51,28.27-22.15,44.51-2.65,9.25-3.9,18.54-2.76,28.11.47,4,1.16,8,1.75,12a124.94,124.94,0,0,1-5.83-20.54,96.36,96.36,0,0,0-2.37-11.22c-3.56-11.82-8.7-23-13.86-34.19s-9.4-22.74-11.34-35C7.37,186.48,8.08,181.81,7.26,177Z"/><path class="cls-1" d="M81.65,49.3a65.73,65.73,0,0,0-12.46,8.23c-9.47,7.93-17.08,17.19-20.72,29.29a103.89,103.89,0,0,0-4.2,30.51c0,14,2.57,27.86,1.27,41.86a3.74,3.74,0,0,0,.06,1c.13.64.21,1.41,1,1.52s1.19-.46,1.56-1c.28-.41.48-.88.75-1.3a96.35,96.35,0,0,1,24.22-25.58,190.67,190.67,0,0,0,20.1-17.14C102.08,108,110,98.64,115,87.15a48.19,48.19,0,0,0,3.86-14.39c.08-.78.31-1.81-.68-2.14-.74-.24-1.1.61-1.42,1.13C109.5,83.58,98.33,91.13,87.3,98.91c-9.94,7-19.26,14.72-26.08,25.11-2.06,3.15-3.23,6.86-5.85,10-.83-2,.26-3.24.73-4.59a260.87,260.87,0,0,0,11-39.85c2.5-13.83,6.26-27.27,16.54-37.77.7-.72,1.52-1.64.78-2.58S82.5,48.87,81.65,49.3Z"/></g></g></svg>