<svg xmlns="http://www.w3.org/2000/svg" viewBox="0 0 637.3 530">
  <defs/>
  <g id="Layer_2" data-name="Layer 2">
    <g id="Layer_1-2" data-name="Layer 1">
      <path class="cls-1" d="M412.6 157.2a13.3 13.3 0 00-4-4c-.4.2-.9.2-1 .4-.7 1.3 0 2.3 1 3 1.2.7 2.4 1.8 4 1a.5.5 0 000-.4zM412.8 161.2c-1 0-1.5.9-1 1.5a23.3 23.3 0 013.8 6.2c.1.3.8.6 1.2.6s1-.4 1-.9c.5-2-2.9-7-5-7.4zM395.1 176.2c-2.7-.2-2.4-1.2-1.2-3 1-1.3 2.3-2.6 2-4.4 0-2.7-1.4-4.5-2.8-3.5-1.7 1.5-4.4 3.1-4 5.6a6 6 0 01-1.8 6.2c-.7.7-1.4 1.6-.5 2.6a2.4 2.4 0 002.8.6c1.8-.7 3.4-2 5.6-1.8.8.1 2 .1 2-.9.2-1.5-1.1-1.4-2-1.4zM420.7 176.4c-.1-1 .1-2.6-1.7-2.2a2.1 2.1 0 00-1.4 2.4 13.4 13.4 0 002.3 6.3c.6.8.7 2.6 2.3 1.7 1.1-.7 1-2 .5-3.2a19.9 19.9 0 01-2-5zM348 179.4a2.2 2.2 0 002.7-1.4c0-1.8-1.6-1.9-2.8-2.2s-2.6-.4-2.6 1.2 1.3 2.2 2.6 2.4zM170 302.3c-.2.2-.6.3-.7.6-.6 1.4 2.4 5.7 3.8 5.6a1.2 1.2 0 00.8-.4c.6-.9-2.8-5.8-3.9-5.8zM234.5 244.8c-1.3.1-1.5 1.2-1.4 2.2.1 1.6.7 3 2.5 3 1.2 0 1.5-1.1 1.3-2.3-.3-1.3-.4-3-2.4-2.9zM360.5 118.8a.9.9 0 00.8-.2c.3-.5 0-1-.4-1.3l-7.8-6.9a5.3 5.3 0 00-1.3-.6c-1.4.4-1 1.3-.7 2 2.2 3.6 6.1 4.9 9.4 7zM235 241.7c1.5-.3 1.5-1.7 1.5-2.8v-3.5-4c0-1.2-.2-2.7-1.8-2.4-1.4.2-.6 1.5-.6 2.5.1 2.5 1.3 5.4-2.3 6.7-1 .4-1 1.3-.3 2a3.9 3.9 0 003.6 1.5zM348.4 97c.5.2.9-.2 1-1a4.4 4.4 0 00-3.6-2.8c-.7-.2-1.5.4-1.2 1 .6 1.8 2.2 2.4 3.8 2.9zM599.6 203.5a69 69 0 00-17.5-38.4c-11.2-13-25.2-23.1-36.1-36.7a101.3 101.3 0 006 24c5.4 13.8 14.2 25.6 22.6 37.6 10.4 15 21.2 29.6 25.7 47.6.1.6.2 1.5 1 1.5s.9-.8 1-1.5c1-4.9 1.6-9.9 3.1-14.6 3.2-10 7-19.8 10.3-29.7 3.4-10.3 6.4-20.6 7-31.6a98.1 98.1 0 00-10-48.8c-4-8-8.5-15.8-14.6-22.7-.6 1.6.3 2.5.8 3.5 5.6 13 5.4 26.6 3.6 40.3-1.3 10-2.8 20-3.3 30.2-.6 12.7 1 25.3 1.7 38 0 1 .5 2-.8 3.1a14.2 14.2 0 01-.5-1.8zM74.1 367.2c-.6.3-1.2-.4-1.6-1-1.8-2.4-3.6-4.7-5.3-7.2-4.3-6.1-8-12.6-12.8-18.4-8-10-17.6-18.6-26.3-28C17.2 301 6.7 289.2 2.6 273.3c-.2-.6-.4-1.4-1.2-1.3s-1 .9-1 1.6L.2 277c-.2 7.6 1 15 2.4 22.4a81.3 81.3 0 008 22.5 131.3 131.3 0 0041.2 44.7c13.8 10.2 28.7 18.7 43 28.2 1 .8 2.5 2.8 3.7 1.7s-.2-3.1-1-4.4a98.4 98.4 0 01-10.8-35.6C84.3 341 84 325.3 82 309.8c-1.6-11.9-3-23.7-6-35.3a85.5 85.5 0 00-4.7-12.7 4 4 0 00-1 3.4c.2 11.4-2.3 22.5-4.8 33.5a96.8 96.8 0 00-1.4 41.1 77.2 77.2 0 009.8 25.5c.3.5 1.5 1.3.2 2zM336.1 471.8c7.4-.5 14.6-.2 21.6 3a113 113 0 0120.8 12.6c12 8.8 24.3 16.8 38.5 21.8s28 7.5 41.8-.6c1.3-.8 2.8-1.2 4.1-1.9q10.2-4.8 20.3-9.8c.7-.3 1.8-.7 1.7-1.6-.3-1.3-1.6-.8-2.5-.8l-9.4.8c-17.5 1-33.4-4.6-49-11.8q-14.8-6.7-30-12.3a157.4 157.4 0 00-25.1-6.6 89.6 89.6 0 00-34.7.1c-9 1.9-17.7 3.8-27 .9a80 80 0 00-35.7-1.6c-20.6 3-39.6 11.2-58.4 19.7-8.4 3.7-16.8 7.6-25.7 9.5a83.1 83.1 0 01-30.3 1.5 25.3 25.3 0 00-4-.2c-.4 0-1.2.2-1.3.5-.4.7.3 1.2.8 1.5l2.2 1.3a352.1 352.1 0 0033.7 15.1 19.4 19.4 0 008.8 1.4c15.2-1.3 29.2-6.5 42.4-13.9 9.3-5.2 17.5-12 26.3-18s18-11 29-10.6h6c.8 0 1.9-.1 2.2.9s-.7 1.4-1.4 1.7c-2.7 1.4-5.5 2.5-8.1 3.8a233.6 233.6 0 00-38.5 25c-6.2 5-12.4 10-18.2 15.5-3.7 3.6-3.4 6 1 8.6 2.6 1.6 5.6 2 8.6 2.5a6.5 6.5 0 006.2-2.1c9.4-9.5 18.9-18.8 29-27.5a169.4 169.4 0 0132.5-22.1 9.2 9.2 0 019 0 166 166 0 0132.9 22.5q14.5 12.6 28 26.3c2.6 2.6 5.2 3.4 8.5 2.4l4.4-1c6.9-2.3 7.7-5.5 2.4-10.3a253.3 253.3 0 00-53.2-38.4c-3.6-1.9-7.4-3.2-10.8-5.3-.6-.5-1.7-.7-1.5-1.7s1.4-.8 2.1-.8zM330.1 233.9c.2 0 .3-.5.5-.9a13.3 13.3 0 00-2.6-4.5c-.3-.3-1-.1-1.2.4a2.4 2.4 0 00.5 2.7c.8 1 1.1 2.5 2.8 2.3zM476.2 80c-1.4-.7-2 .7-2.8 1.5-8.5 8.2-21.3 8-29.3-.4-.8-.8-1.3-2.4-2.7-1.5-1.2.7-.6 2.1-.4 3.2 2.4 10.8 16.4 18 25 12.6l2.7-1.3a3.2 3.2 0 014.8 1l2.8 3.5A203.5 203.5 0 01499 136a193.2 193.2 0 0113.6 39.6c1.8 8.6 3.8 17.2 4.2 26 0 1.7.3 3.7 2.7 3.4 2-.3 1.9-2 1.8-3.5l-.2-2c-1-13.2-3.9-26-7.7-38.6A207.3 207.3 0 00481 97.2c-3.3-4.4-8.4-8.3-4.3-14.3 0-1.4.3-2.5-.5-2.9zM38.2 95.5a9.8 9.8 0 001.5-4.8 16.9 16.9 0 00-4.7 5A136 136 0 0024.4 114a99.8 99.8 0 00-9.8 37.8c-1.1 16.3 3.5 31.7 8.9 46.7 4.8 13.3 10 26.5 12.3 41.4a22 22 0 002.8-6.4 80 80 0 018.1-18.7c7.7-13.9 17.5-26.3 26.4-39.4A115 115 0 0091.7 130c0-.7.4-1.5-.2-1.8-1.1-.5-1.3.7-1.7 1.3a56.8 56.8 0 01-8.8 10.2c-8.5 8-17.1 16-24.8 24.7-8.9 10-15.9 21-17.3 34.7a29.5 29.5 0 01-.7 4c-.3.8 0 2.3-1.4 2-.9 0-.5-1.3-.4-2.1.5-6 .8-12 1.6-18a103.9 103.9 0 000-28.3 236 236 0 01-3.4-44.7c.2-5.8 1-11.3 3.6-16.5zM515.8 250a215.7 215.7 0 01-10.5 41 206.1 206.1 0 01-23.1 44.6c-3.5 5-7.3 9.9-11 14.8-1 1.3-1 2.5.3 3.5 1.2.9 2.3.3 3-.6 2-2.3 4-4.5 5.8-7a207.8 207.8 0 0029.7-54.5c5.2-14.4 9.2-29.2 10.6-44.5.4-4.3 1.6-7 5.9-8.7 4.8-1.7 7.6-5.8 9.3-10.4 1.7-4.4.7-5.8-4-6h-27.4c-3.7.2-4.4 1.2-3.7 4.7a13.2 13.2 0 001.6 4.2 18.7 18.7 0 009.6 8.3c4.5 1.7 4.7 2.3 4.4 7.1l-.5 3.5zM334 68.9c3.7-.9 7.6-.3 11.3-1 1.8-.4 4.4-1.7 4.3-3.4-.2-2.6-3-.7-4.5-1.4-4.3-.5-8 1.8-11.9 2.8a1.5 1.5 0 00-1.2 1.8 1.7 1.7 0 002 1.2zM401.6 95a1 1 0 001.3-1c.2-2-2.7-5-4.8-5a2 2 0 00-2.3 1.4c-.4 1.2 3.7 4.4 5.8 4.6zM321 71.8c3.2 1.2 6.6 1.7 9.4 4a1.4 1.4 0 001.8.2 1.2 1.2 0 000-1.8 26.4 26.4 0 01-3.1-5.6 3 3 0 00-3-1.7c-1.8.1-3.4 1.5-5.2 2.2-.8.2-1.8.5-1.5 1.6.2.7.9 1 1.5 1.1zM440.6 380.1a197 197 0 01-48.1 28.1 232.2 232.2 0 01-28.4 9.5c-8.6 2.3-17.4 3.2-26 4.6-2.8.5-4.6-.4-5.9-3.3-2.8-7-8-11.3-15.8-11.7-8.3-.5-14 3.3-17.9 10.4-2.7 5-3.3 5.3-9.4 4.3-13.5-2.2-26.9-5-39.8-9.5a220.8 220.8 0 01-41.4-19.6c-7-4.2-13.4-9.2-20-14-1.1-1-2.5-2.2-4-.6-1.5 1.8 0 3 1.2 4.2.4.5 1 .8 1.6 1.2a210 210 0 0032.7 21 203.2 203.2 0 0071.6 22.1c3.4.4 5.6 1.4 7 5a18 18 0 0015 11.8 17.9 17.9 0 0019.2-11.9c1.2-3 2.8-4.4 6-4.8A207.2 207.2 0 00442 385c3.2-2.5 6-3.7 10.3-2 9 3.6 17.9.3 22.6-7.4 4.4-7.3 2.5-14.1-5-18a21.3 21.3 0 00-10.6-2.2 23.6 23.6 0 00-7.4.7c-8.8 2.9-14.5 8.5-9.3 18.3 1.5 2.9 0 4.3-2 5.8z"/>
      <path class="cls-1" d="M37.7 388.3c8.6 12 19.1 22 30.7 31.1a100.1 100.1 0 0043.3 19.4l37.8 7c3 .6 5.8 1.5 8.7 2.3.6.2 1.4.5 1.8-.1.6-.8-.2-1.5-.7-2.1l-2-2.2a84.8 84.8 0 01-17.4-26c-5.2-11.2-9-22.9-12.9-34.6A163.4 163.4 0 0097 329.6c-.8-.8-1.5-2.4-2.7-1.8-1.4.6-.3 2 0 3v.5c4.6 14.9 6.4 30.3 9.2 45.5 2.3 13 6.1 25.2 14 35.9 4.7 6.4 10.3 12 15.5 18.2a42 42 0 01-11-6.8 130.3 130.3 0 00-22.6-15.6c-12.3-6.4-25-12.4-37.3-18.8a94.1 94.1 0 01-33.7-27.5c-1.4-1.9-2.6-3.9-3.9-5.8-.3-.4-.8-.8-1.2-.5a1.6 1.6 0 00-.6 1.2 12.6 12.6 0 00.6 3 107 107 0 0014.5 28.2zM110.7 240c-2.8.5-1.6 3.4-1.4 5.1a192.4 192.4 0 008.4 39.5 206.2 206.2 0 0035.6 65.9c2.4 3 3 5.2 1.2 8.8-3.4 6.6-.6 13 6.5 15.7a25.3 25.3 0 0010 1.9 28 28 0 0011.4-2.2c5.9-2.4 8.2-7.1 6.6-13.3a18 18 0 00-25.5-12c-3.1 1.6-4.7.8-6.6-1.7a205.5 205.5 0 01-43.2-103c-.2-2 .2-5.2-3-4.6zM631.2 177.1a1.8 1.8 0 00-1 1.9c0 18.6-6.5 35.5-14.4 52a183.1 183.1 0 00-15.5 47.2c-.8 4.5-1.2 9.3-4.2 13.8-.6-1.9 0-3.1.4-4.4 1.6-7 2.8-14 1.7-21.2-2.7-18-9.8-34.1-19.3-49.4-5-8-10.6-15.8-12.6-25.3a9.8 9.8 0 00-1.4-2.7c-.1-.3-.5-.6-.7-.6-.6 0-.7.6-.8 1v3.5c-.2 9 1.3 17.9 2.6 26.8a379 379 0 0014 56.6c2.2 7.1 4.4 14.2 5.4 21.7 1 7.7-.1 15.3-.3 23 0 .7-.4 1.8.5 2.1s1.3-.9 1.7-1.5c5.8-9.2 12.7-17.5 19.7-25.7 12.2-14.5 22.3-29.9 26.2-49.2 3.1-15.6 4.8-31.1 3.4-47a86.2 86.2 0 00-5.4-22.6zM571.5 60.3A46.4 46.4 0 00551.1 48 72 72 0 01564.8 69c3.1 7.4 4.5 15.3 6.2 23 2.4 11.6 4.8 23.1 9.5 34a19.5 19.5 0 011.7 6.9c-.6-.3-1-.4-1-.6a93.1 93.1 0 00-32.5-34.4c-10.4-7.2-21-14.3-27.5-25.7-.4-.7-.9-1.6-1.8-1.4-1.3.3-1 1.6-1 2.5a52.3 52.3 0 006.8 19.2 117.1 117.1 0 0029.1 33.2c12.9 10.5 26.6 20.1 35.1 35 .4.6.9 1.7 1.8 1.2.8-.5.5-1.6.5-2.4a139.6 139.6 0 01.5-24.4 140.5 140.5 0 00-.1-34.3 63.7 63.7 0 00-20.6-40.4z"/>
      <path class="cls-1" d="M532 38.5c-8.8-7-19-11.8-29-16.4-3.7-1.7-7.5-2.9-11.2-4.6-.5-.2-1.3-.6-1.8 0s0 1.2.4 1.7a17 17 0 001.4 1.5 168.3 168.3 0 0117.6 21l16.1 22.2c8.3 11.8 19.9 20 30.6 29.2 1.7 1.4 3.3 2.8 5 4 1 .8 2 .7 1.9-1a26.2 26.2 0 00-.9-2.8c-3.1-7.3-4.7-15.2-7.3-22.7a70.4 70.4 0 00-22.9-32zM637.3 274.3c0-.8 0-2-.9-2.1-1.1-.2-1 1-1.2 1.7a83 83 0 01-11.7 22.5 244.2 244.2 0 01-21.6 24.2 175.7 175.7 0 00-30.4 36.8 34.5 34.5 0 01-8.3 10.3c.1-4 3-6.1 4.2-9 7.2-17 9.5-34.4 6-52.7-2.5-13.9-7-27.5-6-41.9 0-.6 0-1.7-.4-1.8-1-.4-1.4.6-1.8 1.3a30.2 30.2 0 00-1.2 3.3c-4.8 12.7-6.5 26.2-8.3 39.5-2 14.3-2 28.9-4.2 43.2-1.4 9.2-2 18.5-4.9 27.4-2 6.1-5.2 11.5-7.6 17.4-.3.7-1.1 1.5-.5 2.2 1 1 1.8 0 2.6-.6l17.5-11.4c14.7-9.4 29.5-18.7 42.6-30.5a105.7 105.7 0 0032.6-49.2c2.9-10 3-20.3 3.5-30.6zM446.7 61.5l-3.8-3.2A207.6 207.6 0 00367.8 21a224.3 224.3 0 00-29.5-5.4c-3-.4-5.1-1.2-6.4-4.4a17.3 17.3 0 00-8.7-9.3c-9-4.5-19-1.3-24.2 8.3a9.6 9.6 0 01-8.4 5.6 171.3 171.3 0 00-34.3 6.9 208.2 208.2 0 00-71.9 38c-2 1.7-4 2.2-6.4 1.4a20 20 0 00-6.9-1.3c-8.1 0-16.1 6.3-17.5 13.8-.2 1.1-.6 2.5.7 3 1.2.6 1.7-.6 2.4-1.3a19.7 19.7 0 0120.1-5.6 17.6 17.6 0 019.6 6c.5.6 1.2 1.4 2.1 1s.9-1.4.7-2.2a18.8 18.8 0 00-1.8-5.2c-2.3-4.4-2.3-4.4 1.7-7.6a211.6 211.6 0 0126.2-17.4A199.1 199.1 0 01255 28.3a182 182 0 0135-7.5c5.4-.6 5.6-.5 8 4.4 3 6.5 8 10.7 15.2 11.5 8.6.8 16-4 19-12.3 1-2.8 2.5-4 5.5-3.8l3.5.2c18.3 2 35.9 7.2 52.8 14.2a195.9 195.9 0 0146.7 27.7 33.2 33.2 0 003.3 2.3 2.3 2.3 0 003.2-.5c1-1.1.3-2.1-.6-3zM315.3 32.2c-7.2.1-13.8-6.5-13.8-13.7a13.7 13.7 0 0113.8-13.6c7.8 0 13.4 5.9 13.3 13.8a13.6 13.6 0 01-13.3 13.5z"/>
      <path class="cls-1" d="M610.5 370.1c2.3-5 4-10 4.3-15.7a85.8 85.8 0 01-24.4 26.2c-10.6 7.5-22.4 13-34 18.7-10.2 5-20.5 9.8-29.7 16.4-5.8 4.2-11.5 8.6-17.2 13a9.4 9.4 0 01-4.8 2.2c.4-2 1.9-2.8 3-3.8 15.5-14.2 24-32 27.1-52.6 2.4-15 4-30 9.2-44.4.3-1 .8-2.1-.3-2.6s-1.8.6-2.4 1.4a211.1 211.1 0 00-18.9 27c-8 14-12.4 29.4-17.8 44.4A129.6 129.6 0 01487 436c-2.3 3-5 5.8-7.5 8.6-.9 1-2.6 1.8-1.8 3.2s2.4 0 3.7 0a3.3 3.3 0 001-.2c11-3.6 22.5-4.6 33.7-6.8 10.2-2 20.2-4.1 29.9-7.8a113.3 113.3 0 0034.7-23.2 124.3 124.3 0 0029.8-39.7zM74.2 437.2c5.2 7.9 12.3 14 19.4 20a95.5 95.5 0 0067.7 23.3c14-.5 27.7-3.7 41.3-6.8 12.3-2.8 24.2-7.5 37-8.2 1 0 2.3.1 2.4-1.2s-1.1-1.6-2-1.7c-5.4-.7-10.3-2.8-15.4-4.4a76.8 76.8 0 01-25.4-13.5c-11.3-9.4-21.3-20.1-32-30-8.8-8-17.6-16-27.2-22.7-.6-.4-1.2-1-1.8-.5s0 1.2.3 1.7l7 12.7c5.6 10.4 10.4 21.2 17.4 30.9 8 11 18.2 18.7 31.7 21.7a31.6 31.6 0 017.9 3.2 12 12 0 01-7.4 0 119.8 119.8 0 00-25-4.3c-16.6-1.2-33.3-2.2-49.8-4.3s-31.7-7.3-44.6-18.2a24.1 24.1 0 00-2-1.6 1.6 1.6 0 00-1.2-.3c-.5.2-.3.9-.1 1.3l1.8 3zM314.5 43.3a179.2 179.2 0 00-179.1 177.9c-.7 99.1 80.6 180 179.5 179.9a179.6 179.6 0 00178.8-178.7A179 179 0 00314.5 43.3zm2.8 9.3c0-4.3.6-4.7 5-4.8 6.6-.1 12.9 1.5 19.3 2.3C362 52.8 381 59.7 399 69.5A156.7 156.7 0 01432.8 94c3.2 3.1 3.2 3.3 0 6.7l-13 13c-1.7 1.6-2.3 2.2-4.9 0-4-3.6-4.6-9-8.7-12.4-4.7-3.8-9.8-6.9-15.7-8.4-1.6-.4-3 .5-4.4 1a14.3 14.3 0 01-10.6-.7A138.8 138.8 0 00325 80.2c-1.3 0-2.6-.3-4-.4-2.7-.2-3.8-1.6-3.8-4.2v-12-11zm71.9 276.9c-1.1-.8-.8-2 .1-2.5 1.7-1 2.4-2.8 3.6-4.1 3.4-3.7 3.3-4.6-.7-8l-5.3-4.5a5.3 5.3 0 012.1-8.8 2.1 2.1 0 012.3.5c1.5 1.6 3.4 3 4.5 4.7 1.3 2.2 1.7 5.1 5.2 5.2.4 0 .9 1.3 1 2 .8 3.3 1.9 6.2 5.6 7a1 1 0 01.7 1.8c-5.1 5.5-11.4 9.7-17.4 14.1a1.4 1.4 0 01-.5.1c-1-.3-.6-1-.3-1.5 1.3-2.3 1.7-4.3-1-6zm-4.6-61.8c-.2-2-.8-3.7-3-4a3.3 3.3 0 00-4 2.3c-.8 2.7-3.3 3-5.3 4a1.3 1.3 0 01-1.7-.3 1.1 1.1 0 01.6-1.7c2.5-.8 3.7-3.2 5.7-4.6a16.2 16.2 0 005.8-7.3c1-2.5 2.9-3.5 5.4-4.6 4-1.8 8.3-2.1 12.5-3.2 2.4-.6 4.4-2.3 6.9-2.7 1.9-.4 1.7-1.8.7-3-1.2-1.6-2.4-3.4-4.4-4-3-.8-4.3-2.8-4.8-5.7a9.6 9.6 0 00-2.6-5.3c-2-2-.9-2.9 1.3-3h15.5c4.9.1 5.5.8 5.2 5.6a99.7 99.7 0 01-5.2 25.8 101.2 101.2 0 01-18.8 33.2c-3.4 4-3.4 4-5.3-.7l-1-2.9c-1.3-3.9-1.3-4-4.6-1.3-.5.4-1 1-1.7.6a1.4 1.4 0 01-.5-1.8 38.8 38.8 0 011.4-3.7 24.1 24.1 0 001.9-11.7zM341 187.9c.5 3.1-.6 4.2-3.3 3a38.4 38.4 0 01-5.5-3.5c-1.8-1.3-.5-2.7-.2-4 .2-1.2.6-2.5-.7-3.2s-2.1.3-3 1c-1.2 1-2 2.2-3.6 2.7-4.2 1.2-7.4-1.2-7.5-5.7v-19c0-4 1-4.6 5.6-4.4a71.7 71.7 0 0123.8 7.8c4 2.3 8 4.6 11.6 7.8.5.4 1.5 1 .8 2-.4.5-1.1-.2-1.8-.3-3.5-.2-3.8.4-2.1 4a2.4 2.4 0 01.2 1.5c-.6 2.8-6.3 6.3-9.4 5.7-4.1-.7-5.5.6-4.9 4.6zm64.2-8.8c5 2.8 7.4 7.6 8.9 12.8.8 2.9 2 6-2 8-1 .5-1.4 2.2-1.9 3.4a4.5 4.5 0 01-4.3 3c-2 0-3.3-.5-2.1-3l.5-1.3c1.1-2.8 2.1-5.6-1-7.6-3-1.9-5.4-.5-7.4 2a3 3 0 01-2 1.3l-.8-.4c.4-4.6-5.3-4.5-6.2-8.3-.4-1.7-2.5-2.7-4.4-3-7.2-1-9.9-7.2-13.8-12-1-1.2-.4-2.5.6-3.5l18.4-18.3a2 2 0 013.4.1c4.5 5.6 9.9 10.4 13 17 .8 1.6 0 2.3-.8 3.5-2.5 3.4-2 4.2 2 6.3zm12.4 34.7c2.3 2.8.6 5.5-3 5.7H412c-1.5-.2-3.7.8-5-1.7-.4-1.1-1.3-.7-1.8.2-.9 1.6-2.4 1.5-3.9 1.6-.8 0-1.8.1-2.3-.7-.6-1 .2-1.8 1-2.4.2 0 .4-.2.5-.3 1.2-4.4 3.7-7 8.6-6.4 1.2.2 1.9-1.2 2.5-2.2a9.4 9.4 0 013.1-3.2c.6-.4 1.2-1 1.8-.5 1 .5.6 1.4.3 2.2-1.3 2.8-1.2 5 1 7.7zm-51.9-31.6c-1.3-1.1-2.8-.4-4 .6l-1.1 1c-1 .7-1.6 2.8-3.1 1.6s-.2-2.7.8-3.8a7 7 0 017.6-2.3c2.5.6 5 4.8 5.1 8.1.6 2.4-1.5 2.3-3 2.8-1 .4-.8 3.2-2.6 1.9-1.3-1-1.5-2.9-1-4.6 0-.6.7-1.1.9-1.8.3-1.1 1.9-2.3.4-3.5zm18-32.5l-17.3 17.2c-1.8 1.8-3.3 1.6-5.2.1a88.3 88.3 0 00-16.3-10.5 73.1 73.1 0 00-20.5-6c-7.2-1.1-7.2-1-7.2-8.4v-20c.1-3.7 1-4.3 4.6-4a104.5 104.5 0 0151.3 17.7 75.8 75.8 0 0110.6 9.1c1.7 1.7 1.6 3.2 0 4.8zm-30 105.5c1.3-1.8 2 .8 3.3 1a16.4 16.4 0 013.7 1.4c1 .4 2 .8 1.9 2-.4 1.8-1.8 1-2.8 1-1.5-.3-3.2 0-4.4-1.1s-2.6-2.7-1.6-4.3zm1.6 28.6c.5-1.6 1.9-1 2.9-.5 5.5 2.9 11.6 3.5 17.4 5.4.7.2 2 0 2 1 .1 1.4-1.3.8-2.2 1a13 13 0 01-2.3 0 12.6 12.6 0 01-6.9-1.5 48.2 48.2 0 00-8.7-3.3c-1-.3-2.7-.5-2.2-2zm52.5 18.5c-2.3-.6-3.1 1.4-4 3-.6 1.1-1.3 1.4-2.3.4l-1.5-1.2c-8-8.4-7.5-6-1.2-13.7a107.8 107.8 0 0024-58c.9-8.3 1-8.3 9.3-8.3h14c5.9 0 6.3.5 5.7 6.4l-.2 1.6a135.1 135.1 0 01-20.4 62.8 115.2 115.2 0 01-14.8 19.3c-.7.8-1.4 2.1-2.8 1.6-1-.4-1-1.7-1-2.6l-1.2-6.4c-.4-2.1-1.2-4.3-3.6-5zm39.4-82.7h-19.9c-2.4 0-3.8-1-4-3.5-.2-5.8-2-11.5-1-17.4.4-2.5.4-5.3-2.4-7-1.6-1.2-1.5-3.3-2.2-5-1.8-5.3-2.4-11-6.8-15.1-.3-.3-.5-.7-.5-1 1.5-4.8-2.7-6.2-5-9-3.2-4-5.4-8.6-9.4-12.1-2.4-2.3 0-7.8 3.3-8.3 1.9-.3 2.7 1 3.5 2.3s1.5 2.6 3 1.6c3-1.7 3.5.3 4 2.4a5.1 5.1 0 003.2 3.7c3.6 1.3 6.4 4 10 5.5s5.5 5.2 8 8c2.2 2.7 4 5.3 8.2 3.4 1.8-.8 2.7 1 3.2 2.4A140.8 140.8 0 01452 214c.4 4.7-.3 5.3-4.8 5.5zm-124-135c16.3 1.4 32 4.8 46.8 11.4 1.8.8 4 1.4 4 4 0 .2 0 .4.2.5 5.2 2.9 6.7 8.1 8.7 13.2.6 1.6 1.6 3.1 1.5 5-.1 2.2 1 4.2 1.5 6.2.6 2.5 1.8 3.2 4.4 2.2 3.8-1.5 6-.8 7.8 1.9 1.4 2 1.6 4 0 6a39.7 39.7 0 01-3 3.3c-1 1-2 2.8-3.6 2.2-1.9-.7-.6-2.5-.6-3.9-.1-4-3.2-6.3-6.2-7.7a11.4 11.4 0 01-5.6-4.5 20.4 20.4 0 00-6-5.8 1.3 1.3 0 00-1.8.1 1 1 0 000 1.8c4.6 3 3.7 9.4 8.2 12.4a.7.7 0 01-.1 1.3 1 1 0 01-1 0l-8.6-6c-1-.8-1-1.7.3-2.3.7-.4 1.6-.8 1.4-1.8a2.5 2.5 0 00-2.3-1.7 4.3 4.3 0 00-2.5.3c-3.7 2.2-6.8.5-10.2-1a100.3 100.3 0 00-31.3-8c-8.3-.7-8 0-8-9 0-2.7-.5-5.7 1.3-8.4.9-1.3 0-2.4-.4-3.7-2.4-6-.7-8.5 5.2-8zM313.7 190c0 .5-5.9 2.2-6.2 1.8a6 6 0 01-.6-1.2 2.9 2.9 0 012.4-2.4c1.4-.4 3-.8 4.2.5a1.8 1.8 0 01.3 1.4zm-2.1 82.5c.4 2.3 0 3.7-2.6 3.6-3.6-.2-4.1 2.4-4.3 5s1.4 3.8 3.8 4.3l1.5.2c.7.1 1.4.3 1.3 1.2a1.3 1.3 0 01-1.3 1.3c-3 .1-5.8 1.1-8.8.4a70.9 70.9 0 01-29.9-14.2c-2.6-2.2-2.7-3.2-.3-5.7 4.9-5 10-9.9 14.8-14.9 2-2 3.8-1.9 6.1-.2a36.1 36.1 0 0015 6.5c4.2.8 4.4 1.2 3.9 6.8l.8 5.8zm.2 82.6c0 4-.3 4.3-4.7 4.3-10.2 0-20.2-2-30-4.8a135.1 135.1 0 01-48.5-24.7 65.8 65.8 0 01-7.3-6.7c-1-1.1-2.3-2.2-.9-3.8 1.2-1.3 2.1-.5 3.5.1 4 2 8.2 1.6 12-.1a20.3 20.3 0 018-2c6.6-.2 7.4-1.4 5-8.3a123.7 123.7 0 0027.2 14.8 99.8 99.8 0 0030.5 6.8c5.3.2 5.2.3 5.2 5.5v18.9zm-93-117.9c.8 1.5 0 2.6-1.1 3.4s-2.1.2-3.1-.6c-3.1-2.2-3.8-4-4-10.6-.1-4.3.4-4.8 4.8-5a30.5 30.5 0 014.4.2c1.5.1 2 1 1.3 2.4-.6 1.2-1 2.5-1.6 3.6-1 2.2-2 4.2-.7 6.6zm-3 79.4c-1.2.2-4-2.2-3.8-3.4 0-.8.6-1.1 1.4-1.2a4 4 0 013.3 3 1.2 1.2 0 01-1 1.6zm-21.1-58c.5 3-2.4 5.1-6.3 5.7s-5.3 0-6.3-3.8c-2.7-10.3-5-20.7-4.9-31.4 0-4.2.2-4.5 4.5-4.7h20c2.4 0 3.6 1.3 3.8 3.8l.5 5.4a4.2 4.2 0 01-1.6 3.9c-6 5.7-11.2 11.7-9.7 21zm11-44.6c-.6 5.3-.7 5.4-6.1 5.5h-19c-2.6 0-3.6-1-3.4-3.7a132.1 132.1 0 011.6-17.8 136.3 136.3 0 0132.9-67.8c3.6-4 3.8-4 7.7 0 4.3 4.2 8.6 8.3 12.8 12.6 3.3 3.4 3.4 4.3.2 8a110.2 110.2 0 00-26.7 63.2zm5.3-2.8c2-20.6 9.6-38.9 22.5-55 5.4-6.7 5.6-6.7 11.5-.5l13.4 13.4c3.2 3.1 3 3.4.3 7a80.4 80.4 0 00-5.7 8.1c-1.8 3-3.5 5.7-7 6.9-.9.3-2.2 1-1.7 2 1.5 3-.5 3.8-2.5 4-9.2.7-11.7 7.8-14 14.7-2.4 7.6-2.1 7.7-9.7 7.7-8 0-8 0-7.1-8.3zm101-66c.2 3.2-1 4.5-4.2 4.8a84.4 84.4 0 00-10.3 1.7 71.9 71.9 0 00-29.1 14.7c-2.8 2.2-4.3 2-6.6-.5-5-5.3-10.5-10.2-15.6-15.4-3.3-3.3-3.2-4.7.2-7.7 17.6-15 38.1-22.7 61-24.9 4-.4 4.5.2 4.5 4.3v11.5c0 3.8-.2 7.7 0 11.5zM288.4 309a42.5 42.5 0 014.7 7.6c1.7 3.2 4.9 4.4 8.1 5.2l7.8 1.6c1 .2 2.3.2 2.3 1.5 0 1.7-1.6 1.3-2.6 1.4a9.5 9.5 0 01-1.5-.1 101 101 0 01-56-21.4c-9.9-7.9-9.8-6.5-1-15.2 4-4 8.1-7.9 12-12 1.9-1.9 3.3-2 5.5-.3A87.5 87.5 0 00284 288c3.3 1.6 7 2.3 10.3 3.6 2.7 1 3 2.4.7 3.8-4 2.3-4.7 6.7-7 10a2.8 2.8 0 00.4 3.7zM259 274.7l-16.3 16.1c-1.1 1.1-2.2 3.1-4.1 2.1s-3-3-2-5.9c.5-2.6-1.2-5-2.3-7.6-2-4.4-3.5-8.7-1.4-13.6.9-2-.3-4-1.9-5.3a5.2 5.2 0 01-2-4.4c.1-4.3-1.8-7.8-4.6-10.7a10.5 10.5 0 01-2.2-10.6c1.4-3.7 4.9-7 8-9.6 1.6-1.4 5.2-.7 7.8-.5 3.6.2 4.7 2.3 2.7 5.4-1.2 1.8-1.8 3.2-.8 5.4.6 1.3-1 4 2.5 2.6 1.5-.6 1.8 1 2 2.2 2.6 10.7 7.9 20 14.9 28.4 2 2.3 1.7 4-.3 6zM232 216c-.1-3 1.9-4.8 5-4.8 3.8 0 5.3 1 5.3 3.7 0 3.4-1.6 4.7-5.8 4.6-2.2.1-4.4-.3-4.5-3.5zm49.8 35.6c-4.6 4.6-9.1 9.2-13.8 13.7-2.9 2.8-3.3 2.7-5.9-.3a66.8 66.8 0 01-13.3-26.5c-.3-1-1-2.2.7-3.1 2.4 4 7.5.7 10.6 4.4 1.8 2 4.8 3 6.4 5.7l.4.3c4.7-1 4.2 3 5.4 5.4.8 1.7 1.8 2 2.7.1 1-2.6 3.1-4.6 3.7-7.5.5-2 1.7-2.1 3.2-.6 3.6 3.8 3.7 4.6-.1 8.4zm-3-58.4c-4 .6-6.9-1.2-9.9-3.4-6-4.5-6.9-4.5-13.6-.1 2.2-5 5.2-8.5 8.3-12.1 1-1 2-1 3 0l13.5 13.3a1.5 1.5 0 01.5 1.7c-.4.8-1.2.5-1.8.6zm-8.5-18.4c-2.1-2.1-.5-3.5 1.1-4.8a61.1 61.1 0 0122.5-12.4 58.8 58.8 0 0112.6-2.8c4.8-.4 5.2 0 5.3 4.6V180c.1 2.2-.6 3.6-3 3.6-2.6 0-4.9 2.4-7.7.8-1-.7-1.7.6-2.4 1.2-2.5 2-5 3.7-7.5 5.8-1.7 1.5-3.1 1.3-4.7-.3l-16.2-16.2zm37.6-61.4a103 103 0 00-39 10 99.6 99.6 0 00-25 16c-4.4 4-4.9 4-9 0l-12.7-12.7c-3.5-3.6-3.5-3.7.4-7.3a132 132 0 0129.1-20c16.4-8.4 33.9-13 52-14.6 8-.7 8.1-.4 8 7.4v7h.2c0 3.4-.2 6.7 0 10 .2 3-1 4.1-4 4.2zm-111-20a177 177 0 0125.8-19.6 169.6 169.6 0 0157.8-22.6 172 172 0 0126.2-3.3c5-.2 5.2 0 5.1 5.3v22.5c.2 2.6-.7 4.1-3.5 4.2l-3 .2c-32.8 2-61.2 14.5-85.8 36-4 3.6-4.2 3.7-8-.1l-15-14.8c-3.6-3.8-3.7-4.2.4-7.9zm-53.7 95.8a196 196 0 018.6-29.7 189.3 189.3 0 0115.4-30.7 165.4 165.4 0 0118.4-24.1c3.5-3.8 4.5-3.9 8-.3l14.8 14.8c3.7 3.8 3.7 3.9.4 7.7a144.7 144.7 0 00-21.4 31.1 136.1 136.1 0 00-13.3 40.6c-.8 5.4-1.7 10.8-2 16.3-.3 4.1-.9 4.5-5 4.6h-22.4c-3 0-4.3-1.1-4.2-4.1.3-8.8.8-17.6 2.7-26.2zm43.3 151.3a171.4 171.4 0 01-36.3-59.8 158.7 158.7 0 01-9.6-50.8c0-4.7.4-5.2 5-5.4H166c5 .1 5.5.4 5.9 5.3.4 6.3 1.5 12.6 2.5 18.8a69.5 69.5 0 002.8 11.7c.5 1.2 1.1 2.6-.2 3.6a3.2 3.2 0 01-3.8 0c-3.8-3-7-2.3-9.8 1.4-.5.7-1.3 1.1-2 .4a1.1 1.1 0 010-1.7c2-2.5-.2-2.4-1.6-2.5-3.6-.3-7 1.9-7.4 5.1-.7 6.7-.2 13.3 2.8 19.5.5 1 .9 2.4 2.4 2.2 1.8-.2 1.7-1.7 1.7-3 0-1.2-.7-2.6.8-3.2s2.5.7 3.3 1.8c1.1 1.7 2.3 2.8 4.5 1.5a1.8 1.8 0 012.6.6c1.4 2.3 3.8 3 5.8 4.5 2.6 1.9 5.5 3.6 6.5 7.2.7 2.3 2.7 3.7 5.3 4 1 0 2.3-.2 2.9.6 5 6.8 14.1 8.5 18.6 16 1.4 2.3 1.8 3.6-.1 5.6l-17 17c-2.6 2.5-3.5 2.5-6.2-.4zm121.2 55.8c-12.7-.1-25.2-2.4-37.4-5.5a166.9 166.9 0 01-41-16.5 181.4 181.4 0 01-32.4-23.3c-4-3.6-4-4-.3-7.9l15.5-15.5c3-2.8 3.6-2.8 6.7 0a142 142 0 0042.4 26.6c13.2 5.3 26.8 9 41.1 9.6 9.5.4 9.5.4 9.5 9.8v7h.1V392c0 4-.3 4.3-4.2 4.3zm.8-140.5c-5-1-10-2.7-14-6.2-2-1.7-1.9-2.9.5-4 2.2-1 4.6-1 6.9-1 1.6-.2 3-.4 4-1.6 3-3 4.4-7 5.6-11a3.4 3.4 0 00-.7-3.3c-2.3-2-4.6-4-5.8-7-.5-1.2-2-1-3 0a7 7 0 00-1.6 2.5c-2 4.3-2.8 9-7.3 12-2 1.2-2.9 4-3.4 6.5-.3 1.5-1 1.5-2 .5a12 12 0 01-3.5-9.7c.8-2.6 0-4.7-2.4-6.4a2.8 2.8 0 01-1.1-2.1c0-1.5-.9-3.7.7-4 2.2-.5 1.6 1.7 1.6 3 0 1.8.8 2.6 2.5 1.8a5.4 5.4 0 013-.6c.7 0 1.7.1 1.9 1.1.1.9-.7 1.1-1.3 1.3a3.7 3.7 0 00-2.7 2.7 3 3 0 001.8 4.1c1.6.7 2.6-.4 3-1.7a14.5 14.5 0 016-7.1c2.6-1.7 2.8-5.5 4.7-8 1-1.3-.5-3-2-3.3s-2 .8-2 2.1a3.8 3.8 0 01-2 3.3c-1.6.9-3.1 4-3.9 3.2-2-2 1.7-2.4 2.1-4.1a17.5 17.5 0 013-6.8 1.4 1.4 0 00-.2-1.8c-3.2-3-.2-4.3 1.5-5.6a19.4 19.4 0 015.4-2.6c2.6-1 4.2-2.5 4.6-5.3.3-2 1.2-2.8 3-1.1a16 16 0 007.5 3.7 10 10 0 015.8 3.6 13 13 0 011.2 2.2c.7 1.4-2.6 2.5-.6 3.7 1.2.7 1.9-1.6 3.1-2a1 1 0 011.3 1.2c-.5 3.5 2 7.3-1.4 10.4-1.4 1.3-.7 2 1 2a1.4 1.4 0 01.8.4c1.2 1.3 2.2 2.8 2.2 4.4-.3 4.5 4.4 8.4 1.4 13.3-1.1 2-2.3 3.2-4.6 3-5.2-.6-7.4 2.7-9 6.8-.3.4-.4 1-.6 1.4-2.5 6.9-3.6 7.5-11 6.1zm13 21.9c2.9-.6 5.3.8 7.8 1.4.7.2 1.4.5 1.8-.3s-.3-1.1-.8-1.6c-.7-.6-2.1-1.3-1.2-2.2 1.2-1 2.6-.2 3.4 1a13.3 13.3 0 0011 6.6 1.4 1.4 0 01-.1-.4c-.7-2.8-5.1-3.2-4.8-6 .4-2.3 2.5-4.3 2.5-7.2 0-2.4 3-3.2 4.7-4.5 1.1-.9 4 0 5.5 1.2 1.4 1.1.3 2.2-.9 2.5-2.4.7-4.7 1.5-6.6 3.3s-2.7 3.6-.9 5.7 3.3.6 4.7-.8a6.5 6.5 0 011.1-1c1-.6 2.2-1 3.1 0a2 2 0 01-.4 3c-2.5 1.6-4.6 4-7.9 4a.2.2 0 00.1.2h-.2c-3.5 3.7-8.7 3.6-13 5.3-1.3.4-2.3-.5-2.9-1.6-1-2.3-2.5-2.8-4.8-1.8-2 .8-4.4 1.7-5.4-1.4-.9-2.7.9-4.7 4.3-5.4zm-4.2 67.2v-10c0-2.5 1-4 3.8-4.1 3-.2 6-.7 9-.7a9.9 9.9 0 019.8 11.4c-.6 4.5.9 7.3 4.9 9.3a11.6 11.6 0 012.5 1.5c2 1.7 1.6 3.3-1 3.8-8 1.7-15.9 3.6-24.1 3.4-4.1-.1-4.7-.6-4.8-4.6-.2-3.3-.1-6.6-.1-10zm0-21c.3-2.2 2.2-2 3.5-1.7 2.2.7 6.4.8 6.1 2-.5 2.8-4 1.3-6 2-1.9 0-3.9.2-3.6-2.4zm115 26.9a174.4 174.4 0 01-20.5 16 174.8 174.8 0 01-88.9 29.4c-5.2.3-5.6-.2-5.7-5.6v-10.5-11.5c-.2-3 1.2-4.1 4-4.4 4.6-.5 9.3-.6 14-1.1a120.2 120.2 0 0017-3.6c2.4-.7 4.6-1 6.3 1.4 1 1.4 2.1 1.3 3.5 1a18.7 18.7 0 0010-4.4c11-10.3 24-17.8 35.4-27.5 7-6 5.3-6.4 12.5.5a323 323 0 0112.6 12.8c3.5 3.7 3.6 4-.3 7.5zm56.1-121c-.5 9.4-1 18.8-3.4 28.1-1.7 6.3-2.9 12.7-5 18.9a177.1 177.1 0 01-37.4 63.6c-2.6 2.9-3.7 2.9-6.6 0-5.4-5.3-10.6-11-16-16.2-2.3-2.2-2.5-3.8-.3-6.2a139 139 0 0017.5-23.7c8.8-15 15.2-31 17.6-48.4.8-5.5 1.7-10.9 2-16.4.2-4.4.8-4.9 5.5-5h21c4.7.2 5.4.7 5.1 5.3zM472 147a176 176 0 0114.7 47 137.8 137.8 0 011.8 20.4c0 4.5-.4 4.9-4.8 5h-21.9c-4.3-.1-4.8-.4-5-4.5-.3-5.5-1.3-10.9-2-16.3-1.3-11.4-5-22-9.3-32.5-.8-2-2.1-3.8.5-5.7 1.5-1 .8-2.7-.2-4-4.5-5.7-7-13-13.4-17.1a8 8 0 01-2-2.3c-2-3-3.7-6.2-7.2-8-1.4-.7-2-2.5-3-3.8-1.8-2.4-1.6-4.2.4-6.2 5.4-5.4 10.7-10.9 16.2-16.2 2-2 3.9-1.5 5.6.5a181.6 181.6 0 0129.7 43.7z"/>
      <path class="cls-1" d="M535.2 463.4c5.3-4.2 10.7-8.4 15.8-12.9s10.3-9.5 13.9-15.6c.4-.7 1.3-1.5.5-2.2s-1.4.4-2 .9a83.3 83.3 0 01-48.1 19.7c-16 2-32.1 3-48.2 4.2-7.1.5-14.3 1.3-21.2 3.5-3.2 1-6.7 1.9-10.4.7a22.3 22.3 0 017.2-3 53.7 53.7 0 0033.6-24c8.6-12.7 14-27.2 22.2-40.2.3-.5.7-1.2.2-1.8-.7-.8-1.5-.2-2.2.2L492 396c-15 12-28.8 25.3-42.4 38.7a93 93 0 01-39.4 24.5c-4.1 1.2-8.2 2.7-12.5 3.4-1 .2-2 .5-2 1.8.1 1 1.2 1 2 1.2a12.5 12.5 0 001.5.1c5.7.3 11.1 1.7 16.6 3.2 15.3 4 30.6 8.2 46.2 10.5 14.5 2 29.1 2.1 43.6-2 10.7-3 20.8-7 29.6-14zM145.1 17.7c-9.3 4-18.8 7.6-27.5 12.8a75.8 75.8 0 00-29.7 28.7c-6.4 11.6-8.7 24.7-13.3 37a1.6 1.6 0 000 1.4c.5.6 1.1 0 1.6-.3l11.6-9.5c8.8-7.2 17.4-14.5 24.1-23.8C123 48.7 133.4 32.8 147 19.5a14 14 0 001.3-1.8c-1.2-1.1-2.3-.4-3.2 0zM142.4 107a204.7 204.7 0 00-33.4 92.6c-.3 3-1.4 5.3-4.5 6.4-5.5 2-8.3 6.5-10.4 11.6-1.4 3.4-.3 5 3.4 5.1 4.6.2 9.3 0 14 0h14c4 0 4.8-1.2 4-5-1.5-6-5.2-9.9-10.9-12.1-5-2-5.2-2.5-4.8-7.8a29.7 29.7 0 01.3-3c2.4-14.1 5.2-28.1 10.2-41.6a217.3 217.3 0 0118.5-38.2 197.7 197.7 0 0113.1-18.8c1.3-1.6 3.4-3.7.6-5.5-2.1-1.4-3 1.2-4 2.5-3.4 4.6-7 9.1-10 13.8zM7.3 177a5.5 5.5 0 00-2.5 3.9C3 188.3 1.3 195.8.5 203.4a134 134 0 003.3 41.1A90 90 0 0022 285.1L41 308.7a87.8 87.8 0 018.8 12.8c.5.8 1 2 2 1.9 1.4-.3.8-1.7.8-2.6l-.1-2.5c-.2-5.8-1-11.5-.6-17.4.8-12 5-23 8.5-34.3a365.3 365.3 0 0010.1-40.7c1.5-8 2.4-16.1 3.5-24.2a66.7 66.7 0 00.2-11.5c0-.8 0-1.9-1-2s-1 1.1-1.2 1.8a65.6 65.6 0 01-7.4 17.4c-9 14-17.6 28.3-22.2 44.5a70.6 70.6 0 00-2.8 28.1l1.8 12a125 125 0 01-5.8-20.5 96.4 96.4 0 00-2.4-11.2c-3.6-11.9-8.7-23-13.9-34.2S10 203.3 8.1 191c-.7-4.6 0-9.3-.8-14.1z"/>
      <path class="cls-1" d="M81.7 49.3a65.7 65.7 0 00-12.5 8.2c-9.5 8-17 17.2-20.7 29.3a103.9 103.9 0 00-4.2 30.5c0 14 2.5 27.9 1.2 41.9a3.7 3.7 0 00.1 1c.1.6.2 1.4 1 1.5s1.2-.4 1.6-1l.7-1.3a96.3 96.3 0 0124.2-25.6 190.7 190.7 0 0020.1-17.1c8.9-8.7 16.8-18 21.8-29.5a48.2 48.2 0 003.9-14.4c0-.8.3-1.8-.7-2.2-.8-.2-1.1.6-1.4 1.2-7.3 11.8-18.5 19.3-29.5 27.1-10 7-19.3 14.7-26 25.1-2.1 3.2-3.3 6.9-6 10-.8-2 .3-3.2.8-4.6a260.9 260.9 0 0011-39.8c2.5-13.9 6.3-27.3 16.5-37.8.7-.7 1.6-1.6.8-2.6s-1.9-.3-2.8.1z"/>
    </g>
  </g>
</svg>
